<?xml version="1.0" encoding="UTF-8" standalone="no"?>
<!-- Created with Inkscape (http://www.inkscape.org/) -->

<svg
   width="59.501148"
   height="127.49433"
   viewBox="0 0 16.170864 34.64964"
   version="1.1"
   id="svg1"
   xml:space="preserve"
   xmlns="http://www.w3.org/2000/svg"
   xmlns:svg="http://www.w3.org/2000/svg"><defs
     id="defs1" /><g
     id="g2"
     transform="translate(-0.64563252,-0.01137452)"><path
       style="fill:none;fill-opacity:0.996169;stroke:#000000;stroke-width:0.156542"
       d="M 8.7427439,0.08909803 5.0897247,0.5234509 1.7039998,2.4501957 0.89098026,4.7444698 l 0.0111373,5.9695682 0.30070584,0.868705 0.2450196,9.934431 -0.1002353,0.723921 -0.42321565,0.857568 -0.20047054,1.002353 0.0111373,4.800157 0.13364706,0.813018 0.64596063,1.882198 0.7127842,1.102587 0.7461958,0.668235 1.2919214,0.634823 1.4144314,0.41208 1.8599211,0.122508 1.2250981,0.04455"
       id="path2" /><path
       style="fill:none;fill-opacity:0.996169;stroke:#000000;stroke-width:0.156542"
       d="M 8.7427439,0.8575685 6.0586658,1.0803136 5.4349795,1.2919214 2.8065879,10.791999 2.773176,11.671842"
       id="path3" /><path
       style="fill:none;fill-opacity:0.996169;stroke:#000000;stroke-width:0.156542"
       d="M 2.2385879,5.6131758 2.0047056,12.072783"
       id="path4" /><path
       style="fill:none;fill-opacity:0.996169;stroke:#000000;stroke-width:0.156542"
       d="M 5.0897247,1.4032939 3.0850192,2.2719997 1.8599213,3.207529 0.96894104,5.2790582"
       id="path5" /><path
       style="fill:none;fill-opacity:0.996169;stroke:#000000;stroke-width:0.156542"
       d="M 6.5375677,1.6037645 5.9138814,9.722822"
       id="path6" /><path
       style="fill:none;fill-opacity:0.996169;stroke:#000000;stroke-width:0.156542"
       d="M 8.7427439,9.4109791 5.936156,9.6894104 4.488313,10.246273 2.773176,11.682979 2.3388232,12.72988 l 0.077961,4.833569 0.2116078,3.56392 0.7461961,5.067451 0.1113724,0.04455 0.2561568,-4.555137 -0.077961,-4.265568 -1.3141958,-4.655372"
       id="path7" /><path
       style="fill:none;fill-opacity:0.996169;stroke:#000000;stroke-width:0.156542"
       d="m 8.7316066,10.524704 -0.8575684,0.05569 -2.6395292,0.634823 -2.0826663,0.924392 -0.133647,0.300706 0.9466665,3.318901 3.5082347,-0.245019 0.2450197,-0.423216 1.0357646,-0.01114"
       id="path8" /><path
       style="fill:none;fill-opacity:0.996169;stroke:#000000;stroke-width:0.156542"
       d="m 2.5615683,12.28439 1.2028234,3.708706 3.6864308,-0.289569 h 1.2919214"
       id="path9" /><path
       style="fill:none;fill-opacity:0.996169;stroke:#000000;stroke-width:0.156542"
       d="m 4.221122,16.018212 0.5355154,7.906729"
       id="path10" /><path
       style="fill:none;fill-opacity:0.996169;stroke:#000000;stroke-width:0.156542"
       d="m 8.7572528,23.940691 -4.0321165,-0.01575 -0.4095117,0.330759 0.3465099,6.804195 0.2520073,0.299258 2.0948105,0.456765 1.7483005,0.0315"
       id="path11" /><path
       style="fill:none;fill-opacity:0.996169;stroke:#000000;stroke-width:0.156542"
       d="m 8.7427439,24.29035 -3.60847,-0.02228 -0.3563922,0.300706 0.133647,4.009411 0.8018822,0.501175 3.0404703,0.200472"
       id="path12" /><path
       style="fill:none;fill-opacity:0.996169;stroke:#000000;stroke-width:0.156542"
       d="M 8.7650185,29.535997 5.5574895,29.324388 4.5885484,29.168466"
       id="path13" /><path
       style="fill:none;fill-opacity:0.996169;stroke:#000000;stroke-width:0.156542"
       d="m 4.8001563,30.360151 0.07796,0.512316 1.1694117,0.367528 2.0603919,0.178197 0.055686,-1.21396"
       id="path14" /><path
       style="fill:none;fill-opacity:0.996169;stroke:#000000;stroke-width:0.156542"
       d="m 7.5510577,29.792152 0.022275,1.369882"
       id="path15" /><path
       style="fill:none;fill-opacity:0.996169;stroke:#000000;stroke-width:0.156542"
       d="m 6.9273714,29.747603 0.033412,1.291921"
       id="path16" /><path
       style="fill:none;fill-opacity:0.996169;stroke:#000000;stroke-width:0.156542"
       d="m 6.3482344,29.736465 0.044549,1.247375"
       id="path17" /><path
       style="fill:none;fill-opacity:0.996169;stroke:#000000;stroke-width:0.156542"
       d="m 5.7468228,29.680779 0.033412,1.147139"
       id="path18" /><path
       style="fill:none;fill-opacity:0.996169;stroke:#000000;stroke-width:0.156542"
       d="M 5.1899601,29.580546 5.234509,30.69427"
       id="path19" /><path
       style="fill:none;fill-opacity:0.996169;stroke:#000000;stroke-width:0.156542"
       d="M 3.7958596,17.65626 4.5361309,32.808196"
       id="path20" /><path
       style="fill:none;fill-opacity:0.996169;stroke:#000000;stroke-width:0.156542"
       d="m 3.3705974,26.539516 0.1417541,1.779803 0.3937613,2.331065"
       id="path21" /><path
       style="fill:none;fill-opacity:0.996169;stroke:#000000;stroke-width:0.156542"
       d="m 2.6618268,24.224199 -0.6457686,0.850525 -0.2677577,1.212785 0.078752,1.244285 1.2600364,3.213094"
       id="path22" /><path
       style="fill:none;fill-opacity:0.996169;stroke:#000000;stroke-width:0.156542"
       d="m 1.4805427,21.515121 0.3622605,0.04725 0.7875227,-0.472514"
       id="path23" /><path
       style="fill:none;fill-opacity:0.996169;stroke:#000000;stroke-width:0.156542"
       d="M 3.6856063,21.641125 2.6145755,21.042608"
       id="path24" /><path
       style="fill:none;fill-opacity:0.996169;stroke:#000000;stroke-width:0.156542"
       d="m 0.78752272,27.752301 1.95305638,3.82736 0.8505246,0.929277 1.1340326,0.630018 1.4962933,0.31501 2.5200728,0.157504"
       id="path25" /><path
       style="fill:none;fill-opacity:0.996169;stroke:#000000;stroke-width:0.156542"
       d="M 8.7415024,33.784726 6.1741781,33.62722 6.126927,33.847726 4.221122,33.343713 2.9138342,32.382935 2.1735627,31.233152 1.8900546,29.973115"
       id="path26" /><path
       style="fill:none;fill-opacity:0.996169;stroke:#000000;stroke-width:0.156542"
       d="m 1.5907959,29.957366 0.3937614,1.764049 0.9922788,1.32304 1.3702893,0.803271 0.9607778,0.393763"
       id="path27" /><path
       style="fill:none;fill-opacity:0.996169;stroke:#000000;stroke-width:0.156542"
       d="m 2.6933278,31.359154 0.9450273,-0.441013 0.7717721,0.0315"
       id="path28" /><path
       style="fill:none;fill-opacity:0.996169;stroke:#000000;stroke-width:0.156542"
       d="m 1.2442859,11.860092 1.1025319,0.913527"
       id="path29" /><path
       style="fill:none;fill-opacity:0.996169;stroke:#000000;stroke-width:0.156542"
       d="M 5.0558959,1.4175409 5.4969087,1.2757868"
       id="path30" /><path
       style="fill:none;fill-opacity:0.996169;stroke:#000000;stroke-width:0.156542"
       d="m 6.1426773,33.879227 1.6065465,0.204758 0.9922786,0.04725"
       id="path31" /><path
       style="fill:none;fill-opacity:0.996169;stroke:#000000;stroke-width:0.156542"
       d="M 8.7257518,1.2757868 8.5131207,1.4254162 v 0.3228843 l 0.2283817,0.023625"
       id="path32" /><path
       style="fill:none;fill-opacity:0.996169;stroke:#000000;stroke-width:0.156542"
       d="M 3.0831516,2.9098965 2.5200728,3.1225276 2.0554343,3.618667 1.7443629,4.2959365 l 0.035438,0.6930201 0.244132,0.334697 0.622143,0.090565 0.69302,-0.4291999 L 3.8509862,4.1463072 3.8982376,3.4178486 3.4847882,2.9610854 Z"
       id="path33" /><path
       style="fill:none;fill-opacity:0.996169;stroke:#000000;stroke-width:0.156542"
       d="M 2.3389425,3.6068541 2.4176948,4.3156246 3.1264653,4.2762483 3.2682194,3.2012798"
       id="path34" /><path
       style="fill:none;fill-opacity:0.996169;stroke:#000000;stroke-width:0.156542"
       d="M 2.3783187,4.3510631 2.1420619,4.5440063 2.0869352,4.8078263 2.3625682,4.9574555 2.7366414,4.9338302 3.1894671,4.630634 3.028025,4.3707515"
       id="path35" /><path
       style="fill:none;fill-opacity:0.996169;stroke:#000000;stroke-width:0.156542"
       d="M 3.1146524,3.0713387 3.4060359,3.1343405 3.6856063,3.4808504 3.6226045,4.0596798 3.2130927,4.6030704"
       id="path36" /><path
       style="fill:none;fill-opacity:0.996169;stroke:#000000;stroke-width:0.156542"
       d="M 2.0672472,4.8235767 1.9294307,4.3038117 2.130249,3.81161"
       id="path37" /><path
       style="fill:none;fill-opacity:0.996169;stroke:#000000;stroke-width:0.156542"
       d="M 8.7427439,0.08909803 5.0897247,0.5234509 1.7039998,2.4501957 0.89098026,4.7444698 l 0.0111373,5.9695682 0.30070584,0.868705 0.2450196,9.934431 -0.1002353,0.723921 -0.42321565,0.857568 -0.20047054,1.002353 0.0111373,4.800157 0.13364706,0.813018 0.64596063,1.882198 0.7127842,1.102587 0.7461958,0.668235 1.2919214,0.634823 1.4144314,0.41208 1.8599211,0.122508 1.2250981,0.04455"
       id="path38" /><path
       style="fill:none;fill-opacity:0.996169;stroke:#000000;stroke-width:0.156542"
       d="M 8.7427439,0.8575685 6.0586658,1.0803136 5.4349795,1.2919214 2.8065879,10.791999 2.773176,11.671842"
       id="path39" /><path
       style="fill:none;fill-opacity:0.996169;stroke:#000000;stroke-width:0.156542"
       d="M 2.2385879,5.6131758 2.0047056,12.072783"
       id="path40" /><path
       style="fill:none;fill-opacity:0.996169;stroke:#000000;stroke-width:0.156542"
       d="M 5.0897247,1.4032939 3.0850192,2.2719997 1.8599213,3.207529 0.96894104,5.2790582"
       id="path41" /><path
       style="fill:none;fill-opacity:0.996169;stroke:#000000;stroke-width:0.156542"
       d="M 6.5375677,1.6037645 5.9138814,9.722822"
       id="path42" /><path
       style="fill:none;fill-opacity:0.996169;stroke:#000000;stroke-width:0.156542"
       d="M 8.7427439,9.4109791 5.936156,9.6894104 4.488313,10.246273 2.773176,11.682979 2.3388232,12.72988 l 0.077961,4.833569 0.2116078,3.56392 0.7461961,5.067451 0.1113724,0.04455 0.2561568,-4.555137 -0.077961,-4.265568 -1.3141958,-4.655372"
       id="path43" /><path
       style="fill:none;fill-opacity:0.996169;stroke:#000000;stroke-width:0.156542"
       d="m 8.7316066,10.524704 -0.8575684,0.05569 -2.6395292,0.634823 -2.0826663,0.924392 -0.133647,0.300706 0.9466665,3.318901 3.5082347,-0.245019 0.2450197,-0.423216 1.0357646,-0.01114"
       id="path44" /><path
       style="fill:none;fill-opacity:0.996169;stroke:#000000;stroke-width:0.156542"
       d="m 2.5615683,12.28439 1.2028234,3.708706 3.6864308,-0.289569 h 1.2919214"
       id="path45" /><path
       style="fill:none;fill-opacity:0.996169;stroke:#000000;stroke-width:0.156542"
       d="m 4.221122,16.018212 0.5355154,7.906729"
       id="path46" /><path
       style="fill:none;fill-opacity:0.996169;stroke:#000000;stroke-width:0.156542"
       d="m 8.7572528,23.940691 -4.0321165,-0.01575 -0.4095117,0.330759 0.3465099,6.804195 0.2520073,0.299258 2.0948105,0.456765 1.7483005,0.0315"
       id="path47" /><path
       style="fill:none;fill-opacity:0.996169;stroke:#000000;stroke-width:0.156542"
       d="m 8.7427439,24.29035 -3.60847,-0.02228 -0.3563922,0.300706 0.133647,4.009411 0.8018822,0.501175 3.0404703,0.200472"
       id="path48" /><path
       style="fill:none;fill-opacity:0.996169;stroke:#000000;stroke-width:0.156542"
       d="M 8.7650185,29.535997 5.5574895,29.324388 4.5885484,29.168466"
       id="path49" /><path
       style="fill:none;fill-opacity:0.996169;stroke:#000000;stroke-width:0.156542"
       d="m 4.8001563,30.360151 0.07796,0.512316 1.1694117,0.367528 2.0603919,0.178197 0.055686,-1.21396"
       id="path50" /><path
       style="fill:none;fill-opacity:0.996169;stroke:#000000;stroke-width:0.156542"
       d="m 7.5510577,29.792152 0.022275,1.369882"
       id="path51" /><path
       style="fill:none;fill-opacity:0.996169;stroke:#000000;stroke-width:0.156542"
       d="m 6.9273714,29.747603 0.033412,1.291921"
       id="path52" /><path
       style="fill:none;fill-opacity:0.996169;stroke:#000000;stroke-width:0.156542"
       d="m 6.3482344,29.736465 0.044549,1.247375"
       id="path53" /><path
       style="fill:none;fill-opacity:0.996169;stroke:#000000;stroke-width:0.156542"
       d="m 5.7468228,29.680779 0.033412,1.147139"
       id="path54" /><path
       style="fill:none;fill-opacity:0.996169;stroke:#000000;stroke-width:0.156542"
       d="M 5.1899601,29.580546 5.234509,30.69427"
       id="path55" /><path
       style="fill:none;fill-opacity:0.996169;stroke:#000000;stroke-width:0.156542"
       d="M 3.7958596,17.65626 4.5361309,32.808196"
       id="path56" /><path
       style="fill:none;fill-opacity:0.996169;stroke:#000000;stroke-width:0.156542"
       d="m 3.3705974,26.539516 0.1417541,1.779803 0.3937613,2.331065"
       id="path57" /><path
       style="fill:none;fill-opacity:0.996169;stroke:#000000;stroke-width:0.156542"
       d="m 2.6618268,24.224199 -0.6457686,0.850525 -0.2677577,1.212785 0.078752,1.244285 1.2600364,3.213094"
       id="path58" /><path
       style="fill:none;fill-opacity:0.996169;stroke:#000000;stroke-width:0.156542"
       d="m 1.4805427,21.515121 0.3622605,0.04725 0.7875227,-0.472514"
       id="path59" /><path
       style="fill:none;fill-opacity:0.996169;stroke:#000000;stroke-width:0.156542"
       d="M 3.6856063,21.641125 2.6145755,21.042608"
       id="path60" /><path
       style="fill:none;fill-opacity:0.996169;stroke:#000000;stroke-width:0.156542"
       d="m 0.78752272,27.752301 1.95305638,3.82736 0.8505246,0.929277 1.1340326,0.630018 1.4962933,0.31501 2.5200728,0.157504"
       id="path61" /><path
       style="fill:none;fill-opacity:0.996169;stroke:#000000;stroke-width:0.156542"
       d="M 8.7415024,33.784726 6.1741781,33.62722 6.126927,33.847726 4.221122,33.343713 2.9138342,32.382935 2.1735627,31.233152 1.8900546,29.973115"
       id="path62" /><path
       style="fill:none;fill-opacity:0.996169;stroke:#000000;stroke-width:0.156542"
       d="m 1.5907959,29.957366 0.3937614,1.764049 0.9922788,1.32304 1.3702893,0.803271 0.9607778,0.393763"
       id="path63" /><path
       style="fill:none;fill-opacity:0.996169;stroke:#000000;stroke-width:0.156542"
       d="m 2.6933278,31.359154 0.9450273,-0.441013 0.7717721,0.0315"
       id="path64" /><path
       style="fill:none;fill-opacity:0.996169;stroke:#000000;stroke-width:0.156542"
       d="m 1.2442859,11.860092 1.1025319,0.913527"
       id="path65" /><path
       style="fill:none;fill-opacity:0.996169;stroke:#000000;stroke-width:0.156542"
       d="M 5.0558959,1.4175409 5.4969087,1.2757868"
       id="path66" /><path
       style="fill:none;fill-opacity:0.996169;stroke:#000000;stroke-width:0.156542"
       d="m 6.1426773,33.879227 1.6065465,0.204758 0.9922786,0.04725"
       id="path67" /><path
       style="fill:none;fill-opacity:0.996169;stroke:#000000;stroke-width:0.156542"
       d="M 8.7257518,1.2757868 8.5131207,1.4254162 v 0.3228843 l 0.2283817,0.023625"
       id="path68" /><path
       style="fill:none;fill-opacity:0.996169;stroke:#000000;stroke-width:0.156542"
       d="M 3.0831516,2.9098965 2.5200728,3.1225276 2.0554343,3.618667 1.7443629,4.2959365 l 0.035438,0.6930201 0.244132,0.334697 0.622143,0.090565 0.69302,-0.4291999 L 3.8509862,4.1463072 3.8982376,3.4178486 3.4847882,2.9610854 Z"
       id="path69" /><path
       style="fill:none;fill-opacity:0.996169;stroke:#000000;stroke-width:0.156542"
       d="M 2.3389425,3.6068541 2.4176948,4.3156246 3.1264653,4.2762483 3.2682194,3.2012798"
       id="path70" /><path
       style="fill:none;fill-opacity:0.996169;stroke:#000000;stroke-width:0.156542"
       d="M 2.3783187,4.3510631 2.1420619,4.5440063 2.0869352,4.8078263 2.3625682,4.9574555 2.7366414,4.9338302 3.1894671,4.630634 3.028025,4.3707515"
       id="path71" /><path
       style="fill:none;fill-opacity:0.996169;stroke:#000000;stroke-width:0.156542"
       d="M 3.1146524,3.0713387 3.4060359,3.1343405 3.6856063,3.4808504 3.6226045,4.0596798 3.2130927,4.6030704"
       id="path72" /><path
       style="fill:none;fill-opacity:0.996169;stroke:#000000;stroke-width:0.156542"
       d="M 2.0672472,4.8235767 1.9294307,4.3038117 2.130249,3.81161"
       id="path73" /><path
       style="fill:none;fill-opacity:0.996169;stroke:#000000;stroke-width:0.156542"
       d="m 8.719388,0.09072162 3.653019,0.4343529 3.385725,1.92674478 0.813019,2.2942741 -0.01114,5.9695686 -0.300705,0.868705 -0.24502,9.934431 0.100235,0.723921 0.423216,0.857568 0.20047,1.002353 -0.01114,4.800157 -0.133647,0.813018 -0.64596,1.882198 -0.712784,1.102587 -0.746196,0.668235 -1.291921,0.634823 -1.414432,0.41208 -1.8599214,0.122508 -1.225098,0.04455"
       id="path2-5" /><path
       style="fill:none;fill-opacity:0.996169;stroke:#000000;stroke-width:0.156542"
       d="m 8.719388,0.85919212 2.684078,0.22274508 0.623686,0.2116078 2.628392,9.500078 0.03341,0.879843"
       id="path3-5" /><path
       style="fill:none;fill-opacity:0.996169;stroke:#000000;stroke-width:0.156542"
       d="m 15.223544,5.6147994 0.233882,6.4596076"
       id="path4-1" /><path
       style="fill:none;fill-opacity:0.996169;stroke:#000000;stroke-width:0.156542"
       d="m 12.372407,1.4049175 2.004706,0.8687058 1.225097,0.9355293 0.890981,2.0715292"
       id="path5-7" /><path
       style="fill:none;fill-opacity:0.996169;stroke:#000000;stroke-width:0.156542"
       d="m 10.924564,1.6053881 0.623687,8.1190575"
       id="path6-1" /><path
       style="fill:none;fill-opacity:0.996169;stroke:#000000;stroke-width:0.156542"
       d="m 8.719388,9.4126027 2.806588,0.2784313 1.447843,0.556863 1.715137,1.436706 0.434353,1.046901 -0.07796,4.833569 -0.211608,3.56392 -0.746196,5.067451 -0.111373,0.04455 -0.256156,-4.555137 0.07796,-4.265568 1.314195,-4.655372"
       id="path7-1" /><path
       style="fill:none;fill-opacity:0.996169;stroke:#000000;stroke-width:0.156542"
       d="m 8.730525,10.526328 0.857569,0.05569 2.639529,0.634823 2.082666,0.924392 0.133647,0.300706 -0.946666,3.318901 -3.508235,-0.245019 -0.24502,-0.423216 -1.035764,-0.01114"
       id="path8-5" /><path
       style="fill:none;fill-opacity:0.996169;stroke:#000000;stroke-width:0.156542"
       d="M 14.900564,12.286014 13.69774,15.99472 10.011309,15.705151 H 8.719388"
       id="path9-2" /><path
       style="fill:none;fill-opacity:0.996169;stroke:#000000;stroke-width:0.156542"
       d="m 13.24101,16.019836 -0.535515,7.906729"
       id="path10-7" /><path
       style="fill:none;fill-opacity:0.996169;stroke:#000000;stroke-width:0.156542"
       d="m 8.704879,23.942315 4.032117,-0.01575 0.409511,0.330759 -0.34651,6.804195 -0.252007,0.299258 -2.09481,0.456765 -1.748301,0.0315"
       id="path11-6" /><path
       style="fill:none;fill-opacity:0.996169;stroke:#000000;stroke-width:0.156542"
       d="m 8.719388,24.291974 3.60847,-0.02228 0.356392,0.300706 -0.133647,4.009411 -0.801882,0.501175 -3.04047,0.200472"
       id="path12-1" /><path
       style="fill:none;fill-opacity:0.996169;stroke:#000000;stroke-width:0.156542"
       d="m 8.697113,29.537621 3.207529,-0.211609 0.968942,-0.155922"
       id="path13-4" /><path
       style="fill:none;fill-opacity:0.996169;stroke:#000000;stroke-width:0.156542"
       d="m 12.661976,30.361775 -0.07796,0.512316 -1.169412,0.367528 -2.060392,0.178197 -0.05569,-1.21396"
       id="path14-2" /><path
       style="fill:none;fill-opacity:0.996169;stroke:#000000;stroke-width:0.156542"
       d="m 9.911074,29.793776 -0.02228,1.369882"
       id="path15-3" /><path
       style="fill:none;fill-opacity:0.996169;stroke:#000000;stroke-width:0.156542"
       d="m 10.534761,29.749227 -0.03341,1.291921"
       id="path16-2" /><path
       style="fill:none;fill-opacity:0.996169;stroke:#000000;stroke-width:0.156542"
       d="m 11.113898,29.738089 -0.04455,1.247375"
       id="path17-2" /><path
       style="fill:none;fill-opacity:0.996169;stroke:#000000;stroke-width:0.156542"
       d="m 11.715309,29.682403 -0.03341,1.147139"
       id="path18-1" /><path
       style="fill:none;fill-opacity:0.996169;stroke:#000000;stroke-width:0.156542"
       d="m 12.272172,29.58217 -0.04455,1.113724"
       id="path19-6" /><path
       style="fill:none;fill-opacity:0.996169;stroke:#000000;stroke-width:0.156542"
       d="M 13.666272,17.657884 12.926001,32.80982"
       id="path20-8" /><path
       style="fill:none;fill-opacity:0.996169;stroke:#000000;stroke-width:0.156542"
       d="m 14.091535,26.54114 -0.141755,1.779803 -0.393761,2.331065"
       id="path21-5" /><path
       style="fill:none;fill-opacity:0.996169;stroke:#000000;stroke-width:0.156542"
       d="m 14.800305,24.225823 0.645768,0.850525 0.267758,1.212785 -0.07875,1.244285 -1.260036,3.213094"
       id="path22-7" /><path
       style="fill:none;fill-opacity:0.996169;stroke:#000000;stroke-width:0.156542"
       d="m 15.981589,21.516745 -0.362261,0.04725 -0.787522,-0.472514"
       id="path23-6" /><path
       style="fill:none;fill-opacity:0.996169;stroke:#000000;stroke-width:0.156542"
       d="m 13.776526,21.642749 1.07103,-0.598517"
       id="path24-1" /><path
       style="fill:none;fill-opacity:0.996169;stroke:#000000;stroke-width:0.156542"
       d="m 16.674609,27.753925 -1.953056,3.82736 -0.850525,0.929277 -1.134032,0.630018 -1.496294,0.31501 -2.520073,0.157504"
       id="path25-8" /><path
       style="fill:none;fill-opacity:0.996169;stroke:#000000;stroke-width:0.156542"
       d="m 8.720629,33.78635 2.567325,-0.157506 0.04725,0.220506 1.905805,-0.504013 1.307288,-0.960778 0.740271,-1.149783 0.283508,-1.260037"
       id="path26-9" /><path
       style="fill:none;fill-opacity:0.996169;stroke:#000000;stroke-width:0.156542"
       d="m 15.871336,29.95899 -0.393762,1.764049 -0.992278,1.32304 -1.370289,0.803271 -0.960778,0.393763"
       id="path27-2" /><path
       style="fill:none;fill-opacity:0.996169;stroke:#000000;stroke-width:0.156542"
       d="m 14.768804,31.360778 -0.945027,-0.441013 -0.771772,0.0315"
       id="path28-7" /><path
       style="fill:none;fill-opacity:0.996169;stroke:#000000;stroke-width:0.156542"
       d="m 16.217846,11.861716 -1.102532,0.913527"
       id="path29-9" /><path
       style="fill:none;fill-opacity:0.996169;stroke:#000000;stroke-width:0.156542"
       d="M 12.406236,1.4191645 11.965223,1.2774104"
       id="path30-5" /><path
       style="fill:none;fill-opacity:0.996169;stroke:#000000;stroke-width:0.156542"
       d="m 11.319455,33.880851 -1.606547,0.204758 -0.992279,0.04725"
       id="path31-4" /><path
       style="fill:none;fill-opacity:0.996169;stroke:#000000;stroke-width:0.156542"
       d="M 8.73638,1.2774104 8.949011,1.4270398 V 1.7499241 L 8.720629,1.7735491"
       id="path32-3" /><path
       style="fill:none;fill-opacity:0.996169;stroke:#000000;stroke-width:0.156542"
       d="m 14.37898,2.9115201 0.563079,0.2126311 0.464638,0.4961394 0.311072,0.6772695 -0.03544,0.6930201 -0.244132,0.334697 -0.622143,0.090565 -0.69302,-0.4291999 -0.51189,-0.8387115 -0.04725,-0.7284586 0.413449,-0.4567632 z"
       id="path33-1" /><path
       style="fill:none;fill-opacity:0.996169;stroke:#000000;stroke-width:0.156542"
       d="m 15.123189,3.6084777 -0.07875,0.7087705 -0.70877,-0.039376 -0.141754,-1.0749685"
       id="path34-2" /><path
       style="fill:none;fill-opacity:0.996169;stroke:#000000;stroke-width:0.156542"
       d="M 15.083813,4.3526867 15.32007,4.5456299 15.3752,4.8094499 15.099567,4.9590791 14.725494,4.9354541 14.272668,4.6322576 14.43411,4.3723751"
       id="path35-3" /><path
       style="fill:none;fill-opacity:0.996169;stroke:#000000;stroke-width:0.156542"
       d="m 14.34748,3.0729623 -0.291384,0.063002 -0.27957,0.3465099 0.063,0.5788294 0.409511,0.5433906"
       id="path36-3" /><path
       style="fill:none;fill-opacity:0.996169;stroke:#000000;stroke-width:0.156542"
       d="M 15.394884,4.8252003 15.532701,4.3054353 15.331883,3.8132336"
       id="path37-4" /><path
       style="fill:none;fill-opacity:0.996169;stroke:#000000;stroke-width:0.156542"
       d="m 8.719388,0.09072162 3.653019,0.4343529 3.385725,1.92674478 0.813019,2.2942741 -0.01114,5.9695686 -0.300705,0.868705 -0.24502,9.934431 0.100235,0.723921 0.423216,0.857568 0.20047,1.002353 -0.01114,4.800157 -0.133647,0.813018 -0.64596,1.882198 -0.712784,1.102587 -0.746196,0.668235 -1.291921,0.634823 -1.414432,0.41208 -1.8599214,0.122508 -1.225098,0.04455"
       id="path38-1" /><path
       style="fill:none;fill-opacity:0.996169;stroke:#000000;stroke-width:0.156542"
       d="m 8.719388,0.85919212 2.684078,0.22274508 0.623686,0.2116078 2.628392,9.500078 0.03341,0.879843"
       id="path39-1" /><path
       style="fill:none;fill-opacity:0.996169;stroke:#000000;stroke-width:0.156542"
       d="m 15.223544,5.6147994 0.233882,6.4596076"
       id="path40-3" /><path
       style="fill:none;fill-opacity:0.996169;stroke:#000000;stroke-width:0.156542"
       d="m 12.372407,1.4049175 2.004706,0.8687058 1.225097,0.9355293 0.890981,2.0715292"
       id="path41-8" /><path
       style="fill:none;fill-opacity:0.996169;stroke:#000000;stroke-width:0.156542"
       d="m 10.924564,1.6053881 0.623687,8.1190575"
       id="path42-7" /><path
       style="fill:none;fill-opacity:0.996169;stroke:#000000;stroke-width:0.156542"
       d="m 8.719388,9.4126027 2.806588,0.2784313 1.447843,0.556863 1.715137,1.436706 0.434353,1.046901 -0.07796,4.833569 -0.211608,3.56392 -0.746196,5.067451 -0.111373,0.04455 -0.256156,-4.555137 0.07796,-4.265568 1.314195,-4.655372"
       id="path43-4" /><path
       style="fill:none;fill-opacity:0.996169;stroke:#000000;stroke-width:0.156542"
       d="m 8.730525,10.526328 0.857569,0.05569 2.639529,0.634823 2.082666,0.924392 0.133647,0.300706 -0.946666,3.318901 -3.508235,-0.245019 -0.24502,-0.423216 -1.035764,-0.01114"
       id="path44-2" /><path
       style="fill:none;fill-opacity:0.996169;stroke:#000000;stroke-width:0.156542"
       d="M 14.900564,12.286014 13.69774,15.99472 10.011309,15.705151 H 8.719388"
       id="path45-7" /><path
       style="fill:none;fill-opacity:0.996169;stroke:#000000;stroke-width:0.156542"
       d="m 13.24101,16.019836 -0.535515,7.906729"
       id="path46-7" /><path
       style="fill:none;fill-opacity:0.996169;stroke:#000000;stroke-width:0.156542"
       d="m 8.704879,23.942315 4.032117,-0.01575 0.409511,0.330759 -0.34651,6.804195 -0.252007,0.299258 -2.09481,0.456765 -1.748301,0.0315"
       id="path47-9" /><path
       style="fill:none;fill-opacity:0.996169;stroke:#000000;stroke-width:0.156542"
       d="m 8.719388,24.291974 3.60847,-0.02228 0.356392,0.300706 -0.133647,4.009411 -0.801882,0.501175 -3.04047,0.200472"
       id="path48-3" /><path
       style="fill:none;fill-opacity:0.996169;stroke:#000000;stroke-width:0.156542"
       d="m 8.697113,29.537621 3.207529,-0.211609 0.968942,-0.155922"
       id="path49-1" /><path
       style="fill:none;fill-opacity:0.996169;stroke:#000000;stroke-width:0.156542"
       d="m 12.661976,30.361775 -0.07796,0.512316 -1.169412,0.367528 -2.060392,0.178197 -0.05569,-1.21396"
       id="path50-9" /><path
       style="fill:none;fill-opacity:0.996169;stroke:#000000;stroke-width:0.156542"
       d="m 9.911074,29.793776 -0.02228,1.369882"
       id="path51-8" /><path
       style="fill:none;fill-opacity:0.996169;stroke:#000000;stroke-width:0.156542"
       d="m 10.534761,29.749227 -0.03341,1.291921"
       id="path52-6" /><path
       style="fill:none;fill-opacity:0.996169;stroke:#000000;stroke-width:0.156542"
       d="m 11.113898,29.738089 -0.04455,1.247375"
       id="path53-5" /><path
       style="fill:none;fill-opacity:0.996169;stroke:#000000;stroke-width:0.156542"
       d="m 11.715309,29.682403 -0.03341,1.147139"
       id="path54-0" /><path
       style="fill:none;fill-opacity:0.996169;stroke:#000000;stroke-width:0.156542"
       d="m 12.272172,29.58217 -0.04455,1.113724"
       id="path55-2" /><path
       style="fill:none;fill-opacity:0.996169;stroke:#000000;stroke-width:0.156542"
       d="M 13.666272,17.657884 12.926001,32.80982"
       id="path56-8" /><path
       style="fill:none;fill-opacity:0.996169;stroke:#000000;stroke-width:0.156542"
       d="m 14.091535,26.54114 -0.141755,1.779803 -0.393761,2.331065"
       id="path57-6" /><path
       style="fill:none;fill-opacity:0.996169;stroke:#000000;stroke-width:0.156542"
       d="m 14.800305,24.225823 0.645768,0.850525 0.267758,1.212785 -0.07875,1.244285 -1.260036,3.213094"
       id="path58-0" /><path
       style="fill:none;fill-opacity:0.996169;stroke:#000000;stroke-width:0.156542"
       d="m 15.981589,21.516745 -0.362261,0.04725 -0.787522,-0.472514"
       id="path59-2" /><path
       style="fill:none;fill-opacity:0.996169;stroke:#000000;stroke-width:0.156542"
       d="m 13.776526,21.642749 1.07103,-0.598517"
       id="path60-4" /><path
       style="fill:none;fill-opacity:0.996169;stroke:#000000;stroke-width:0.156542"
       d="m 16.674609,27.753925 -1.953056,3.82736 -0.850525,0.929277 -1.134032,0.630018 -1.496294,0.31501 -2.520073,0.157504"
       id="path61-8" /><path
       style="fill:none;fill-opacity:0.996169;stroke:#000000;stroke-width:0.156542"
       d="m 8.720629,33.78635 2.567325,-0.157506 0.04725,0.220506 1.905805,-0.504013 1.307288,-0.960778 0.740271,-1.149783 0.283508,-1.260037"
       id="path62-6" /><path
       style="fill:none;fill-opacity:0.996169;stroke:#000000;stroke-width:0.156542"
       d="m 15.871336,29.95899 -0.393762,1.764049 -0.992278,1.32304 -1.370289,0.803271 -0.960778,0.393763"
       id="path63-5" /><path
       style="fill:none;fill-opacity:0.996169;stroke:#000000;stroke-width:0.156542"
       d="m 14.768804,31.360778 -0.945027,-0.441013 -0.771772,0.0315"
       id="path64-0" /><path
       style="fill:none;fill-opacity:0.996169;stroke:#000000;stroke-width:0.156542"
       d="m 16.217846,11.861716 -1.102532,0.913527"
       id="path65-9" /><path
       style="fill:none;fill-opacity:0.996169;stroke:#000000;stroke-width:0.156542"
       d="M 12.406236,1.4191645 11.965223,1.2774104"
       id="path66-0" /><path
       style="fill:none;fill-opacity:0.996169;stroke:#000000;stroke-width:0.156542"
       d="m 11.319455,33.880851 -1.606547,0.204758 -0.992279,0.04725"
       id="path67-0" /><path
       style="fill:none;fill-opacity:0.996169;stroke:#000000;stroke-width:0.156542"
       d="M 8.73638,1.2774104 8.949011,1.4270398 V 1.7499241 L 8.720629,1.7735491"
       id="path68-6" /><path
       style="fill:none;fill-opacity:0.996169;stroke:#000000;stroke-width:0.156542"
       d="m 14.37898,2.9115201 0.563079,0.2126311 0.464638,0.4961394 0.311072,0.6772695 -0.03544,0.6930201 -0.244132,0.334697 -0.622143,0.090565 -0.69302,-0.4291999 -0.51189,-0.8387115 -0.04725,-0.7284586 0.413449,-0.4567632 z"
       id="path69-1" /><path
       style="fill:none;fill-opacity:0.996169;stroke:#000000;stroke-width:0.156542"
       d="m 15.123189,3.6084777 -0.07875,0.7087705 -0.70877,-0.039376 -0.141754,-1.0749685"
       id="path70-3" /><path
       style="fill:none;fill-opacity:0.996169;stroke:#000000;stroke-width:0.156542"
       d="M 15.083813,4.3526867 15.32007,4.5456299 15.3752,4.8094499 15.099567,4.9590791 14.725494,4.9354541 14.272668,4.6322576 14.43411,4.3723751"
       id="path71-8" /><path
       style="fill:none;fill-opacity:0.996169;stroke:#000000;stroke-width:0.156542"
       d="m 14.34748,3.0729623 -0.291384,0.063002 -0.27957,0.3465099 0.063,0.5788294 0.409511,0.5433906"
       id="path72-9" /><path
       style="fill:none;fill-opacity:0.996169;stroke:#000000;stroke-width:0.156542"
       d="M 15.394884,4.8252003 15.532701,4.3054353 15.331883,3.8132336"
       id="path73-3" /><path
       style="fill:#000000;fill-opacity:0.996169;stroke:#000000;stroke-width:0.0472088"
       d="m 11.905142,51.766477 -2.1866345,-6.743229 0.3821635,-0.915093 0.382164,-0.915092 3.109632,-2.602378 3.109632,-2.602376 2.622572,-1.006254 2.622574,-1.006254 5.069352,-0.504792 5.069351,-0.504791 5.11216,0.504863 5.11216,0.504862 2.619705,1.006672 2.619704,1.006672 3.115817,2.610236 3.115817,2.610236 0.375004,0.917487 0.375003,0.917487 -2.176387,6.716747 c -1.197013,3.694211 -2.180712,6.722264 -2.185999,6.729006 -0.0053,0.0067 -1.724618,-0.122344 -3.820737,-0.286859 -2.096118,-0.164515 -3.663597,-0.30916 -3.483286,-0.321435 0.180311,-0.01228 1.839995,0.08601 3.688186,0.218416 1.84819,0.132404 3.363845,0.234651 3.368121,0.227217 0.0043,-0.0074 0.811824,-2.841661 1.794551,-6.298281 l 1.786776,-6.284764 -0.27418,-0.623891 c -0.150799,-0.343141 -0.312914,-0.65532 -0.360257,-0.693732 -0.04734,-0.03841 -1.801082,-0.830654 -3.897201,-1.760539 L 45.15978,40.975919 40.2422,39.790965 35.324619,38.606011 33.700554,38.507428 c -1.272713,-0.07726 -1.96943,-0.07688 -3.220455,0.0017 l -1.596389,0.100317 -4.893553,1.179192 -4.893553,1.179191 -3.811125,1.694261 c -2.096119,0.931844 -3.849859,1.7259 -3.897201,1.764568 -0.04734,0.03867 -0.210428,0.353264 -0.362412,0.699101 l -0.276334,0.628794 1.78986,6.279862 c 0.984423,3.453923 1.792941,6.285269 1.796706,6.291879 0.0038,0.0066 1.482119,-0.09387 3.285232,-0.223297 1.803113,-0.129424 3.462796,-0.231999 3.688185,-0.227945 0.225389,0.0041 -1.083917,0.128406 -2.909568,0.276335 -1.825652,0.14793 -3.541848,0.289061 -3.813768,0.313626 l -0.494402,0.04466 z"
       id="path75"
       transform="scale(0.27177398)" /><path
       style="fill:#000000;fill-opacity:0.996169;stroke:#000000;stroke-width:0.0472088"
       d="m 27.635421,57.401277 c 0.05333,-0.02173 0.293066,-0.386862 0.532738,-0.811401 l 0.435767,-0.771888 3.288632,-0.0017 c 1.808747,-9.49e-4 3.403737,0.0213 3.544421,0.04943 0.217793,0.04356 0.317124,0.158339 0.668704,0.772715 0.227103,0.396855 0.457765,0.739741 0.512583,0.761968 0.05482,0.02223 -1.965716,0.04041 -4.490074,0.04041 -2.524358,0 -4.546105,-0.01778 -4.492771,-0.03951 z"
       id="path76"
       transform="scale(0.27177398)" /><path
       style="fill:#000000;fill-opacity:0.996169;stroke:#000000;stroke-width:0.0059011"
       d="m 16.724896,58.317265 c 0.01972,-0.0022 0.515321,-0.043 1.101333,-0.09066 2.339874,-0.1903 3.465169,-0.293694 3.521705,-0.323582 0.02624,-0.01387 0.02188,-0.0385 -0.0089,-0.05019 -0.03031,-0.01152 -0.243313,-0.003 -0.925973,0.03705 -0.239476,0.01405 -0.488428,0.02743 -0.553228,0.02973 l -0.117817,0.0042 0.117817,-0.01004 c 0.09817,-0.0084 7.724289,-0.541996 7.745607,-0.541996 0.0038,0 0.0049,0.01107 0.0023,0.0246 -0.0057,0.03007 0.0031,0.03312 0.120239,0.04145 0.224123,0.01592 1.926841,0.02635 4.325934,0.02648 2.323703,1.29e-4 2.630393,0.0019 2.630393,0.01542 0,0.01351 -0.415322,0.01455 -3.608787,0.009 l -3.608786,-0.0063 -3.529389,0.277896 c -6.566003,0.516993 -7.171611,0.56425 -7.209994,0.562607 l -0.03831,-0.0016 z"
       id="path77"
       transform="scale(0.27177398)" /><path
       style="fill:#000000;fill-opacity:0.996169;stroke:#000000;stroke-width:0.00417271"
       d="m 44.179242,58.072198 c -0.01394,-0.0016 -1.663237,-0.131457 -3.665093,-0.288611 l -3.639738,-0.285736 -1.166842,-0.0015 c -0.641763,-8.41e-4 -1.133427,-0.0026 -1.092588,-0.0039 0.05932,-0.0019 0.07425,-0.0045 0.07425,-0.01296 0,-0.0082 -0.01027,-0.01061 -0.04467,-0.01061 -0.02457,0 -0.04331,-0.0013 -0.04165,-0.0029 0.0017,-0.0016 0.35672,-0.0066 0.789023,-0.01106 0.853462,-0.0088 1.216695,-0.01764 1.240063,-0.03014 0.01148,-0.0061 0.01381,-0.01255 0.01053,-0.02895 -0.0023,-0.01159 -0.0018,-0.02097 10e-4,-0.02085 0.101069,0.0041 7.638855,0.535201 7.642052,0.538397 0.0026,0.0026 0.0034,0.0057 0.0017,0.007 -0.0017,0.0012 -0.126896,-0.0051 -0.278301,-0.01413 -0.691358,-0.04117 -1.134022,-0.05905 -1.164518,-0.04705 -0.02363,0.0093 -0.02764,0.03978 -0.0067,0.05098 0.03178,0.01701 0.500468,0.06681 1.232802,0.130988 0.196895,0.01725 0.217329,0.02002 0.217329,0.0294 0,0.0067 -0.05685,0.0076 -0.108665,0.0017 z"
       id="path78"
       transform="scale(0.27177398)" /><path
       style="fill:#000000;fill-opacity:0.996169;stroke:#000000;stroke-width:0.0236044"
       d="m 26.001706,107.95779 -5.675707,-0.38276 -1.587231,-0.26028 C 17.86579,107.17159 17.138096,107.04103 17.12167,107.0246 17.09603,106.999 16.215836,90.178124 16.209733,89.597238 l -0.0022,-0.210075 0.629235,-0.509117 0.629235,-0.509117 14.658455,0.0031 14.658454,0.0031 0.632977,0.509302 c 0.60427,0.486204 0.632908,0.515894 0.631429,0.654636 -0.0069,0.649759 -0.89533,17.470223 -0.924101,17.496313 -0.02056,0.0186 -0.811895,0.15626 -1.75853,0.30582 l -1.721153,0.27193 -5.617438,0.36879 c -3.089592,0.20284 -5.781967,0.36651 -5.983057,0.36372 -0.201089,-0.003 -2.919686,-0.17731 -6.041325,-0.38782 z m 10.490839,-0.20262 c 2.220082,-0.14534 4.663505,-0.30421 5.429828,-0.35303 l 1.393314,-0.0888 1.587163,-0.98735 1.587162,-0.98735 7.76e-4,-0.14343 c 4.27e-4,-0.0789 0.112026,-3.4705 0.247998,-7.536927 0.135972,-4.066424 0.232801,-7.406954 0.215175,-7.423399 -0.01763,-0.01645 -0.354764,-0.301716 -0.749195,-0.633934 l -0.717147,-0.604033 -5.14297,0.03072 c -5.408455,0.03231 -14.578505,0.03273 -14.630379,6.68e-4 -0.01675,-0.01035 -1.590847,-0.01972 -3.498004,-0.02082 l -3.467559,-0.002 -0.737853,0.622851 c -0.519438,0.438477 -0.737958,0.648129 -0.738209,0.708249 -7.65e-4,0.183535 0.49801,15.000915 0.505081,15.004735 0.0041,0.002 0.697992,0.43481 1.541898,0.96127 0.843906,0.52646 1.599984,0.97192 1.680174,0.98992 0.08019,0.018 2.589221,0.19132 5.575626,0.38519 2.986406,0.19386 5.436017,0.35854 5.443581,0.36596 0.0076,0.007 0.108988,0.005 0.225389,-0.005 0.1164,-0.0104 2.028068,-0.13779 4.248151,-0.28314 z"
       id="path80"
       transform="scale(0.27177398)" /><path
       style="fill:#f9f9f9;fill-opacity:0.996169;stroke:#000000;stroke-width:0.0059011"
       d="m 31.892558,6.1962843 c -0.146503,-0.015215 -0.267522,-0.027924 -0.26893,-0.028241 -0.0014,-3.176e-4 -0.0024,-0.1746138 -0.0022,-0.3873248 l 3.58e-4,-0.3867472 0.244679,-0.171603 c 0.134573,-0.094382 0.249671,-0.1716031 0.255773,-0.1716031 0.0061,0 0.124041,0.079498 0.262088,0.1766628 l 0.250995,0.1766628 v 0.3868099 0.38681 l -0.02817,6.616e-4 c -0.0155,3.639e-4 -0.122684,0.010767 -0.238195,0.023119 l -0.210022,0.022457 z"
       id="path81"
       transform="scale(0.27177398)" /><path
       style="fill:#f9f9f9;fill-opacity:0.996169;stroke:#000000;stroke-width:0.0333816"
       d="M 6.0330735,78.927612 C 5.8450323,78.900176 5.6786823,78.86523 5.6634068,78.849954 5.6292025,78.81575 4.7741696,44.322731 4.8067192,44.290182 c 0.012845,-0.01284 0.8071275,0.624409 1.7650731,1.416119 l 1.7417193,1.439474 -1.534e-4,0.521588 c -8.44e-5,0.286874 0.054205,4.094467 0.1206433,8.461319 l 0.1207966,7.939731 0.3728296,6.461898 c 0.2050564,3.554044 0.3836519,6.559655 0.396879,6.679135 l 0.024049,0.217237 -1.3022826,0.782474 c -1.3949376,0.838145 -1.3363002,0.817219 -2.0131996,0.718455 z"
       id="path82"
       transform="scale(0.27177398)" /><path
       style="fill:#f9f9f9;fill-opacity:0.996169;stroke:#000000;stroke-width:0.0333816"
       d="M 6.5778063,44.88421 4.810202,43.413616 4.762317,42.961526 C 4.7270913,42.628955 4.5700112,42.088097 4.1681505,40.915694 L 3.6218692,39.321952 3.6220046,29.39525 c 1.318e-4,-9.655959 0.00307,-9.925132 0.1078182,-9.869073 0.088436,0.04733 0.1205636,0.02957 0.1797485,-0.09938 0.039636,-0.08636 0.7450495,-1.721775 1.5675853,-3.634265 0.8225357,-1.91249 1.5277874,-3.54803 1.5672259,-3.634532 0.045175,-0.09909 0.8888102,-0.780874 2.2801089,-1.842683 L 11.532894,8.6299119 15.010148,7.1233023 c 3.270141,-1.4168723 4.417034,-1.8852501 4.47482,-1.8274643 0.01355,0.013548 -2.112762,7.753204 -4.725132,17.199236 l -4.749765,17.174604 -0.062169,1.622125 -0.06217,1.622124 -0.7122064,1.724352 C 8.781812,45.586672 8.4352398,46.360869 8.4033649,46.358718 8.3714901,46.356565 7.5499887,45.693037 6.5778063,44.88421 Z m 1.1249004,-0.91143 c 0.025804,-0.361013 0.8513076,-23.080593 0.8465056,-23.297605 -5.29e-4,-0.02391 -0.1443985,-0.04346 -0.3197101,-0.04346 -0.3072175,0 -0.3187483,0.0056 -0.3187483,0.155605 0,0.305612 -0.8055484,22.601964 -0.8355775,23.127511 l -0.030631,0.536077 h 0.3119932 0.3119931 z m 3.5135823,-24.586032 1.306114,-0.809139 0.975228,-1.595379 0.975228,-1.595379 0.07792,-1.188062 c 0.04286,-0.653434 0.08815,-1.311402 0.100649,-1.462152 l 0.02273,-0.27409 -0.836454,-0.926723 c -0.673309,-0.745972 -0.872267,-0.932686 -1.020066,-0.957292 -0.100986,-0.01681 -0.483686,-0.0682 -0.850443,-0.114207 l -0.666832,-0.08364 -1.102773,0.416731 -1.1027732,0.416731 -0.9003194,0.956245 -0.9003195,0.956245 -0.5980865,1.30397 -0.5980864,1.30397 0.070933,1.360889 c 0.039013,0.748489 0.086749,1.387435 0.1060798,1.419879 0.019331,0.03245 0.2426895,0.345864 0.4963526,0.696487 0.2536632,0.350623 0.4655524,0.643556 0.470865,0.650962 0.029593,0.04125 2.2419469,0.354163 2.4361249,0.344559 0.1866985,-0.0092 0.4860247,-0.168948 1.5379307,-0.820604 z"
       id="path83"
       transform="scale(0.27177398)" /><path
       style="fill:#f9f9f9;fill-opacity:0.996169;stroke:#000000;stroke-width:0.0333816"
       d="m 10.597593,41.026861 0.03986,-1.241275 4.78337,-17.299341 C 18.051674,12.971608 20.216003,5.14561 20.23044,5.0951389 20.247678,5.034877 20.619503,4.8802325 21.313514,4.6446823 l 1.056823,-0.358691 4.868156,-0.4030718 4.868156,-0.4030718 4.868157,0.4047012 4.868156,0.4047011 1.057106,0.3520368 c 0.581408,0.1936202 1.069302,0.3717707 1.084208,0.3958901 0.01491,0.024119 2.190001,7.8654181 4.833543,17.4251081 l 4.80644,17.381256 0.04026,1.213866 c 0.03871,1.167115 0.03621,1.210639 -0.0648,1.130107 -0.114777,-0.09151 -5.436423,-4.538728 -5.595713,-4.676256 -0.05391,-0.04654 -1.235793,-0.522764 -2.626405,-1.058262 -1.390612,-0.535499 -2.543339,-0.988587 -2.561616,-1.006864 -0.01828,-0.01828 -0.544596,-6.686984 -1.169598,-14.819348 L 40.510014,5.8406675 40.226873,5.8742003 c -0.155729,0.018443 -0.296392,0.046782 -0.312586,0.062976 -0.01619,0.016194 0.476986,6.6281337 1.095955,14.6931997 1.104349,14.389477 1.123204,14.663738 1.008037,14.662777 -0.06455,-5.39e-4 -2.320998,-0.220704 -5.01433,-0.489255 l -4.896967,-0.488275 -4.973879,0.494778 c -2.735634,0.272127 -4.983264,0.485392 -4.994734,0.473922 -0.01147,-0.01147 0.485518,-6.616774 1.104419,-14.678453 0.6189,-8.061679 1.113189,-14.6696832 1.098419,-14.6844531 -0.01477,-0.01477 -0.157825,-0.039439 -0.3179,-0.05482 -0.211233,-0.020297 -0.291045,-0.0078 -0.291045,0.045587 0,0.1762001 -2.265581,29.5225401 -2.280322,29.5372811 -0.009,0.009 -1.162185,0.457206 -2.562605,0.995985 l -2.546219,0.979599 -0.550576,0.460588 c -0.302816,0.253323 -1.604527,1.343018 -2.89269,2.421543 l -2.342116,1.960956 z M 33.048406,6.7425151 33.236757,6.7097924 V 5.8877756 5.0657588 L 32.802869,4.7641177 C 32.56423,4.5982151 32.343851,4.4624765 32.313138,4.4624765 c -0.03071,0 -0.0832,0.045639 -0.116635,0.10142 -0.05745,0.095837 -0.06543,0.095437 -0.144981,-0.00727 C 31.948949,4.4242044 31.912762,4.437028 31.423123,4.7793099 L 31.034496,5.0509794 V 5.882665 6.7143505 l 0.333237,0.036329 c 0.18328,0.019981 0.385396,0.045778 0.449145,0.057326 0.137748,0.024953 0.963772,-0.018974 1.231528,-0.065492 z"
       id="path84"
       transform="scale(0.27177398)" /><path
       style="fill:#f9f9f9;fill-opacity:0.996169;stroke:#000000;stroke-width:0.0333816"
       d="M 59.144959,15.032606 57.669782,11.599386 55.368272,9.8432525 53.066762,8.0871196 49.48326,6.5321494 C 46.247685,5.1281526 45.708446,4.9130589 43.929315,4.3167678 L 41.95887,3.6563566 37.028883,3.2492035 32.098896,2.8420505 27.176662,3.24875 22.254429,3.6554495 20.42887,4.2680136 c -1.593465,0.5346853 -2.297114,0.816068 -5.53463,2.2132456 L 11.185168,8.0819409 8.8755373,9.8508828 6.5659062,11.619825 5.1085117,15.017584 3.6511172,18.415343 3.6336255,17.944274 3.6161337,17.473204 5.0725464,13.356567 6.528959,9.2399298 12.682044,5.737356 l 6.153084,-3.5025734 6.635761,-0.7896633 6.63576,-0.78966329 6.664738,0.79460489 6.664738,0.794605 6.143149,3.4996267 6.14315,3.4996267 1.465478,4.1375557 1.465478,4.137556 -0.01662,0.473397 -0.01662,0.473398 z"
       id="path85"
       transform="scale(0.27177398)" /><path
       style="fill:#f9f9f9;fill-opacity:0.996169;stroke:#000000;stroke-width:0.0333816"
       d="M 55.086567,44.661053 54.3632,42.915115 54.293925,41.234442 54.22465,39.553769 49.477727,22.428291 C 46.866919,13.009278 44.737854,5.2936361 44.746473,5.2824199 c 0.04348,-0.05659 0.943252,0.3130307 4.311792,1.7712584 l 3.680094,1.5930986 2.202261,1.6809071 2.202262,1.680908 1.54887,3.601619 c 1.924502,4.475082 1.698999,3.996607 1.846401,3.91772 l 0.120801,-0.06465 -0.02329,9.987291 -0.02329,9.98729 -0.561174,1.587962 c -0.493245,1.395744 -0.561174,1.634421 -0.561174,1.971759 v 0.383796 l -1.748134,1.447542 c -0.961473,0.796147 -1.789495,1.47691 -1.840047,1.512806 -0.07987,0.05671 -0.186671,-0.163447 -0.81528,-1.680673 z m 2.088178,-0.340547 c 0.0016,-0.07172 -0.187261,-5.431037 -0.419664,-11.909597 L 56.332531,20.63171 h -0.304764 -0.304764 l 1.8e-5,0.362214 c 1.1e-5,0.199217 0.182566,5.392278 0.40568,11.540135 0.223113,6.147856 0.405661,11.344178 0.405661,11.547382 v 0.369462 h 0.318748 c 0.291063,0 0.319,-0.01133 0.321635,-0.130397 z M 55.827288,20.060007 c 0.69836,-0.101522 1.148637,-0.193396 1.198758,-0.244592 0.04415,-0.0451 0.285662,-0.36382 0.536693,-0.708271 l 0.456419,-0.626275 0.06839,-1.36719 0.06839,-1.367189 -0.593458,-1.299462 -0.593457,-1.299462 -0.905675,-0.96671 -0.905676,-0.96671 -1.122723,-0.417297 -1.122723,-0.417296 -0.782382,0.11127 c -0.430311,0.0612 -0.800161,0.112065 -0.821891,0.113037 -0.02173,9.71e-4 -0.422455,0.422157 -0.890503,0.935968 l -0.850996,0.934201 0.03351,0.326303 c 0.01843,0.179467 0.06415,0.830701 0.101605,1.447186 l 0.0681,1.120881 0.97848,1.602968 0.97848,1.602967 1.317229,0.822532 c 0.920032,0.574505 1.369657,0.823015 1.491093,0.824134 0.09562,8.82e-4 0.67718,-0.07156 1.292347,-0.160993 z"
       id="path86"
       transform="scale(0.27177398)" /><path
       style="fill:#f9f9f9;fill-opacity:0.996169;stroke:#000000;stroke-width:0.0333816"
       d="M 56.252132,78.244535 C 55.57097,77.8318 54.991968,77.472418 54.96546,77.44591 54.93895,77.4194 55.085322,74.594217 55.290725,71.16772 l 0.373461,-6.229993 0.145097,-8.809045 c 0.0798,-4.844974 0.151715,-8.853721 0.159805,-8.908325 0.01089,-0.07353 3.462857,-3.012486 3.498196,-2.97832 0.0034,0.0033 -0.184537,7.660332 -0.4177,17.015596 -0.233162,9.355263 -0.425042,17.143226 -0.4264,17.306585 -0.0024,0.286458 -0.009,0.29832 -0.186086,0.333739 -0.100989,0.0202 -0.355263,0.05029 -0.565054,0.06686 l -0.381437,0.03014 z"
       id="path87"
       transform="scale(0.27177398)" /><path
       style="fill:#f9f9f9;fill-opacity:0.996169;stroke:#000000;stroke-width:0.0333816"
       d="m 24.819949,87.756977 -6.996928,-0.01472 -0.0263,-0.130164 c -0.0299,-0.148015 -1.948078,-28.574298 -1.929404,-28.592689 0.0067,-0.0066 2.711361,-0.224892 6.010406,-0.485146 l 5.998264,-0.473188 4.607362,0.03633 4.607362,0.03633 5.650539,0.438649 c 3.107796,0.241258 5.652906,0.442109 5.6558,0.446337 0.01291,0.01885 -1.943659,28.682097 -1.958764,28.695486 -0.03219,0.02853 -14.64511,0.05745 -21.61834,0.04278 z"
       id="path88"
       transform="scale(0.27177398)" /><path
       style="fill:#f9f9f9;fill-opacity:0.996169;stroke:#000000;stroke-width:0.0333816"
       d="m 6.5173271,108.50393 c -2.6226065,-5.13799 -3.3560165,-6.52981 -3.4337888,-6.51641 -0.092748,0.016 -0.098895,-0.39659 -0.098895,-6.637975 v -6.655 l 0.367179,-1.823348 0.3671789,-1.823348 0.7700961,-1.535197 0.7700962,-1.535196 0.1700277,-1.216133 c 0.093515,-0.668873 0.1788323,-1.224938 0.1895933,-1.235699 0.010761,-0.01076 0.289615,0.01856 0.6196756,0.06515 l 0.6001102,0.08471 1.2645299,-0.75324 c 0.6954912,-0.414281 1.2766013,-0.741168 1.2913547,-0.726414 0.014754,0.01475 0.6253861,4.105236 1.3569601,9.089961 0.731574,4.984725 1.350232,9.126879 1.374797,9.204785 0.03439,0.109055 0.151289,0.184498 0.50804,0.327865 l 0.463376,0.186216 0.01979,-0.182979 c 0.01089,-0.100639 0.233051,-3.990573 0.4937,-8.644298 l 0.473906,-8.46132 -0.07305,-3.796002 c -0.04018,-2.087802 -0.06675,-3.95248 -0.05904,-4.143729 0.0077,-0.191249 0.466005,8.936544 1.018445,20.283985 0.552441,11.347436 1.019365,20.823016 1.037611,21.056836 l 0.03317,0.42513 -1.385336,-0.0406 -1.385337,-0.0406 -1.620642,0.76006 c -0.891353,0.41804 -1.6606958,0.77269 -1.7096503,0.78812 -0.068095,0.0215 -0.872555,-1.50701 -3.4239017,-6.5054 z m 4.9101379,4.63371 0.242296,-0.0985 -2.3157686,-5.90481 -2.3157682,-5.9048 L 6.8946854,98.992089 6.7511466,96.754605 7.2327041,94.579192 7.7142615,92.40378 8.8837187,90.870121 c 0.643201,-0.843512 1.1689303,-1.546698 1.1682873,-1.562636 -0.0021,-0.05134 -0.4191256,-0.34784 -0.4844001,-0.34438 -0.034711,0.0018 -0.5991321,0.712503 -1.2542694,1.579253 l -1.191159,1.575908 -0.5045413,2.289192 -0.5045413,2.289193 0.149211,2.344382 0.1492111,2.344387 2.324219,5.92858 c 1.27832,3.26072 2.352392,5.92713 2.386826,5.92535 0.03443,-0.002 0.17164,-0.0476 0.304903,-0.10171 z m 3.246893,-0.38028 c 0.0077,-0.008 -0.311502,-1.94242 -0.709381,-4.29932 l -0.723418,-4.28529 -0.262212,-3.2715 C 12.83513,99.10193 12.708,97.620621 12.696834,97.609456 c -0.01117,-0.01117 -0.155881,-0.0023 -0.321589,0.01967 l -0.301287,0.03997 0.03431,0.32514 c 0.01887,0.178828 0.139097,1.65519 0.267172,3.280814 l 0.232864,2.95566 0.637706,3.79601 c 0.350739,2.0878 0.679247,4.02712 0.730018,4.30961 l 0.09231,0.5136 0.295993,-0.0393 c 0.162795,-0.0216 0.302308,-0.0456 0.310028,-0.0533 z"
       id="path89"
       transform="scale(0.27177398)" /><path
       style="fill:#f9f9f9;fill-opacity:0.996169;stroke:#000000;stroke-width:0.0333816"
       d="m 52.651428,114.24939 -1.651696,-0.78053 -1.376413,0.0386 c -0.767877,0.0215 -1.377782,0.0163 -1.37951,-0.0117 -0.0017,-0.0276 0.448167,-9.3215 0.999711,-20.653006 0.599049,-12.307497 1.010051,-20.311058 1.020799,-19.878305 0.0099,0.398436 -0.009,2.093597 -0.04208,3.767026 l -0.06007,3.042598 0.485025,8.595176 c 0.266764,4.727347 0.494334,8.604194 0.505712,8.615216 0.04367,0.0423 0.940682,-0.352866 0.964727,-0.425 0.01394,-0.04183 0.629806,-4.180098 1.368585,-9.196157 0.738779,-5.016058 1.358399,-9.13527 1.376933,-9.153803 0.01853,-0.01853 0.595713,0.304155 1.282622,0.717086 l 1.248926,0.750785 0.622905,-0.08181 c 0.342597,-0.045 0.627545,-0.0754 0.633218,-0.06756 0.0057,0.0078 0.08145,0.548878 0.168407,1.202313 l 0.158093,1.188061 0.782394,1.593742 0.782394,1.593742 0.375601,1.854535 0.3756,1.854536 -0.04031,6.595434 c -0.03021,4.944081 -0.05704,6.589011 -0.107157,6.569781 -0.04013,-0.0154 -1.397789,2.58172 -3.396834,6.49794 -1.831491,3.58798 -3.356063,6.52996 -3.387938,6.53774 -0.03187,0.008 -0.801217,-0.33709 -1.70965,-0.76638 z m 2.868735,-6.9268 2.318169,-5.91847 0.150937,-2.324756 0.150937,-2.324759 -0.484139,-2.231238 c -0.266276,-1.227181 -0.510722,-2.292216 -0.543213,-2.366744 -0.06994,-0.160438 -2.368864,-3.196863 -2.42039,-3.196863 -0.103308,0 -0.477334,0.319318 -0.451842,0.385751 0.0162,0.04221 0.540612,0.751746 1.165367,1.576752 l 1.13592,1.500012 0.479059,2.169441 0.479059,2.16944 -0.140254,2.227963 -0.140254,2.227961 -2.314568,5.90496 c -1.273012,3.24773 -2.307352,5.91182 -2.298534,5.9202 0.04485,0.0426 0.433194,0.19142 0.508645,0.19486 0.06255,0.003 0.737082,-1.65593 2.405101,-5.91451 z m -4.589425,1.12428 0.735337,-4.39003 0.231788,-3.01362 c 0.127484,-1.657492 0.242683,-3.095006 0.256,-3.194476 0.02389,-0.178473 0.02031,-0.181316 -0.271778,-0.21591 -0.162794,-0.01928 -0.307903,-0.02314 -0.322464,-0.0086 -0.01456,0.01456 -0.140299,1.467851 -0.279416,3.229526 l -0.25294,3.20306 -0.723706,4.2936 c -0.398038,2.36147 -0.723706,4.32213 -0.723706,4.35702 0,0.0675 0.148574,0.10867 0.438171,0.12155 l 0.177376,0.008 z"
       id="path90"
       transform="scale(0.27177398)" /><path
       style="fill:#f9f9f9;fill-opacity:0.996169;stroke:#000000;stroke-width:0.0333816"
       d="m 27.499287,123.0644 -4.665316,-0.29849 -2.665895,-0.56639 -2.665895,-0.56639 -2.044148,-1.13558 -2.044149,-1.13558 -1.544555,-1.69234 c -1.51404,-1.65892 -1.758083,-1.96036 -1.660094,-2.05053 0.02677,-0.0246 0.757022,-0.37383 1.622791,-0.77599 1.794282,-0.83348 1.488237,-0.76967 3.325917,-0.69345 l 0.9012,0.0374 0.131054,2.7877 c 0.07208,1.53323 0.146529,3.01778 0.165441,3.299 l 0.03439,0.51131 0.295283,-0.0397 c 0.162406,-0.0219 0.301095,-0.0448 0.308198,-0.0509 0.0071,-0.006 -0.599,-12.52785 -1.346895,-27.825974 -0.747896,-15.29813 -1.360053,-27.850713 -1.360351,-27.894631 -4.11e-4,-0.06066 -0.05625,-0.07094 -0.232358,-0.04278 l -0.231817,0.03707 v -0.424081 c 0,-0.383213 -0.234744,-1.255643 -2.435921,-9.053134 L 8.9502439,46.861805 9.1333675,46.407518 c 0.1007179,-0.249858 0.1898633,-0.446759 0.1981009,-0.437558 0.00824,0.0092 0.9734666,2.976743 2.1449546,6.594536 1.171487,3.617794 2.137786,6.587072 2.14733,6.598396 0.0095,0.01132 0.362286,-0.0083 0.783871,-0.04357 0.421585,-0.03529 0.778009,-0.05267 0.792054,-0.03862 0.01405,0.01405 0.450984,6.31879 0.970973,14.010543 0.51999,7.691753 0.959339,14.145132 0.976332,14.340843 l 0.0309,0.355837 -0.808583,0.650433 c -0.444721,0.357738 -0.808948,0.667041 -0.809395,0.68734 -4.46e-4,0.0203 0.288369,5.718861 0.641811,12.663472 l 0.642621,12.62657 0.526617,0.63046 c 0.28964,0.34676 0.530351,0.63046 0.534914,0.63046 0.0046,0 1.74116,0.38035 3.859103,0.84522 l 3.850806,0.84522 2.173285,0.0505 c 2.797911,0.065 5.104282,0.0717 8.171547,0.0237 l 2.463056,-0.0386 3.853957,-0.8359 c 2.119676,-0.45975 3.909169,-0.85462 3.976652,-0.8775 0.06748,-0.0229 0.360875,-0.32368 0.651985,-0.66844 0.495575,-0.5869 0.52929,-0.64342 0.52929,-0.88727 0,-0.28456 1.191595,-23.887739 1.24163,-24.594274 l 0.03078,-0.434657 -0.817487,-0.659995 -0.817487,-0.659995 0.03108,-0.325227 c 0.0171,-0.178875 0.457265,-6.642608 0.978152,-14.363851 l 0.947069,-14.038625 0.492611,0.0426 c 0.270936,0.02343 0.634135,0.04264 0.807109,0.04267 l 0.314499,7.3e-5 1.786395,-5.505653 c 0.982517,-3.028109 1.945375,-5.999849 2.139684,-6.603867 l 0.35329,-1.098213 0.191363,0.461474 0.191363,0.461474 -2.428218,8.599886 c -2.276955,8.064169 -2.428217,8.628673 -2.428217,9.062001 v 0.462113 l -0.227645,-0.0364 -0.227644,-0.0364 -0.03193,0.304278 c -0.06511,0.62041 -2.713212,55.454108 -2.679684,55.487638 0.01916,0.0191 0.165799,0.0474 0.325873,0.0628 l 0.291046,0.028 4.15e-4,-0.28266 c 2.28e-4,-0.15546 0.06511,-1.57359 0.144179,-3.15139 0.07907,-1.57781 0.144081,-2.93713 0.14447,-3.02074 l 7.07e-4,-0.152 1.318459,-0.0414 1.318459,-0.0414 1.634968,0.76514 1.634968,0.76514 -0.109853,0.21063 c -0.06042,0.11584 -0.791483,0.95389 -1.624588,1.86232 l -1.514735,1.6517 -2.050924,1.14231 -2.050924,1.1423 -2.769658,0.57974 -2.769658,0.57973 -4.317591,0.26259 c -2.374675,0.14443 -4.408869,0.27089 -4.52043,0.28103 -0.111562,0.0101 -2.302233,-0.11588 -4.868157,-0.28006 z"
       id="path91"
       transform="scale(0.27177398)" /><path
       style="fill:#f9f9f9;fill-opacity:0.996169;stroke:#000000;stroke-width:0.0333816"
       d="m 29.498709,126.83117 c -0.98812,-0.0393 -3.296148,-0.16857 -5.128951,-0.28721 l -3.332369,-0.21571 -0.707956,-0.20417 c -0.605775,-0.17471 -0.706153,-0.22034 -0.695451,-0.31615 0.01062,-0.095 -0.259044,-0.22426 -1.784076,-0.85492 l -1.796581,-0.74295 -2.446986,-1.44143 -2.446986,-1.44143 -1.7806362,-2.37612 -1.7806368,-2.37612 -0.7127631,-3.18749 c -0.3920196,-1.75311 -0.7128591,-3.20424 -0.7129766,-3.22471 -1.175e-4,-0.0205 -0.1371305,-0.006 -0.3044734,0.0318 -0.2464686,0.0559 -0.302275,0.0905 -0.2938103,0.18211 0.00575,0.0622 0.330558,1.5475 0.7218015,3.30061 l 0.7113521,3.18749 1.8571622,2.47947 1.8571626,2.47947 2.188304,1.28219 c 1.203567,0.70521 2.17828,1.29222 2.166029,1.30447 -0.01225,0.0122 -0.91875,-0.41946 -2.014441,-0.95936 L 11.06926,122.46933 9.7652896,121.29695 8.4613192,120.12456 7.1619271,118.11794 5.862535,116.11132 4.6866203,112.68659 3.5107055,109.26186 3.279539,107.87639 c -0.2280101,-1.36655 -0.2314038,-1.40895 -0.2485425,-3.10487 -0.00956,-0.94567 -0.014247,-1.71501 -0.010422,-1.70965 0.00382,0.005 0.82268,1.61015 1.8196785,3.56621 0.9969986,1.95605 1.8196991,3.63817 1.8282233,3.73804 0.014056,0.16469 0.8856681,4.09278 1.0082936,4.54408 0.028362,0.10438 0.6719669,1.15315 1.4302338,2.3306 l 1.3786673,2.14083 2.448426,1.79875 2.448425,1.79874 3.551862,0.93871 c 1.953523,0.5163 3.577941,0.9683 3.609816,1.00445 0.03247,0.0368 1.332285,0.22657 2.955666,0.43147 2.444331,0.30851 3.189198,0.38029 4.760693,0.45879 1.704645,0.0851 2.024806,0.0853 3.767025,0.001 1.659485,-0.0799 2.272513,-0.139 4.77278,-0.45984 1.651754,-0.21196 2.893321,-0.39663 2.926689,-0.43533 0.03187,-0.037 1.651767,-0.48674 3.59976,-0.99951 l 3.541804,-0.9323 2.44979,-1.79973 2.449789,-1.79973 1.391512,-2.15964 1.391513,-2.15964 0.512168,-2.27884 c 0.281693,-1.25335 0.508396,-2.33565 0.503785,-2.4051 -0.0046,-0.0694 0.810817,-1.73015 1.812061,-3.69045 l 1.820443,-3.56419 0.01626,1.59374 0.01626,1.59374 -0.238453,1.44886 -0.238446,1.44886 -1.160309,3.39032 c -0.638171,1.86468 -1.186947,3.44248 -1.219504,3.50623 -0.03256,0.0637 -0.621532,0.98705 -1.308834,2.05178 l -1.24964,1.93588 -1.307509,1.18423 -1.307509,1.18423 -1.992166,0.98258 c -1.095692,0.54042 -2.002546,0.97221 -2.015231,0.95952 -0.01268,-0.0127 0.955315,-0.59593 2.151111,-1.2961 l 2.174174,-1.27303 1.869454,-2.49437 1.869455,-2.49437 0.719657,-3.25527 c 0.485926,-2.19802 0.70059,-3.27434 0.66095,-3.31398 -0.03229,-0.0323 -0.170441,-0.064 -0.307003,-0.0706 l -0.248296,-0.0119 -0.712359,3.1796 c -0.556998,2.48616 -0.74179,3.22056 -0.84731,3.36741 -0.07422,0.10329 -0.878216,1.17991 -1.786648,2.39249 l -1.651696,2.20469 -2.52101,1.47571 -2.521009,1.47571 -1.70965,0.70077 c -1.473179,0.60385 -1.707832,0.71668 -1.696505,0.81577 0.01392,0.12172 0.01551,0.12109 -1.027345,0.40734 -0.351296,0.0964 -1.045965,0.15893 -3.62214,0.32592 -3.362563,0.21797 -6.834163,0.37611 -7.997685,0.36432 -0.382498,-0.004 -1.503913,-0.0392 -2.492032,-0.0785 z"
       id="path92"
       transform="scale(0.27177398)" /><path
       style="fill:#00003f;fill-opacity:0.661626;stroke:#000000;stroke-width:0.0059011"
       d="m 30.340447,125.20799 -1.777501,-0.0853 -2.840415,-0.36155 c -2.71907,-0.34611 -2.8404,-0.36243 -2.84007,-0.38211 3.96e-4,-0.0236 0.06721,-0.3328 0.07279,-0.33687 0.0031,-0.002 1.376495,0.0812 3.338433,0.20286 0.233841,0.0145 1.630741,0.1001 3.104222,0.19022 1.473482,0.0901 2.689325,0.16625 2.701874,0.16918 0.01255,0.003 0.284553,-0.0108 0.604453,-0.0306 1.34947,-0.0833 5.430202,-0.33319 5.441176,-0.33319 0.0088,0 0.01194,0.0751 0.01194,0.28605 v 0.28604 l -0.02817,0.006 c -0.0155,0.003 -0.576791,0.0747 -1.247324,0.15928 l -1.21915,0.15376 -1.751888,0.0824 c -0.963538,0.0453 -1.761109,0.0818 -1.772378,0.081 -0.01127,-7.8e-4 -0.820365,-0.0398 -1.79799,-0.0868 z"
       id="path93"
       transform="scale(0.27177398)" /><path
       style="fill:#00003f;fill-opacity:0.661626;stroke:#000000;stroke-width:0.0472088"
       d="m 13.198185,51.900963 c -0.895176,-3.144178 -1.653251,-5.808904 -1.684611,-5.921613 -0.03986,-0.143268 0.0073,-0.335565 0.15678,-0.639123 l 0.213799,-0.434197 3.770145,-1.669463 3.770145,-1.669462 4.804513,-1.154942 4.804514,-1.154942 1.540962,-0.09595 c 1.184123,-0.07373 1.89901,-0.07335 3.087144,0.0017 l 1.54618,0.09761 4.812093,1.154438 4.812092,1.154438 3.775682,1.675081 3.77568,1.675081 0.178874,0.368175 c 0.09838,0.202496 0.179832,0.431732 0.181003,0.509412 0.0012,0.07768 -0.743396,2.769069 -1.654595,5.980864 -1.643098,5.791596 -1.658461,5.839626 -1.867865,5.839626 -0.116128,0 -2.847674,-0.184298 -6.070105,-0.409552 -3.22243,-0.225254 -5.932727,-0.409673 -6.022883,-0.40982 -0.121386,-1.98e-4 -0.275815,-0.199159 -0.595158,-0.766788 l -0.43124,-0.766521 -0.675216,-0.05256 c -0.865683,-0.06739 -6.679549,-0.06978 -7.014033,-0.0029 -0.216979,0.0434 -0.315429,0.160702 -0.686412,0.817871 -0.364575,0.645821 -0.465521,0.767501 -0.638001,0.76905 -0.112694,0.001 -2.823511,0.186017 -6.024036,0.411121 -3.200525,0.225104 -5.913349,0.409462 -6.028498,0.409683 -0.206994,3.99e-4 -0.227761,-0.06423 -1.836953,-5.716284 z"
       id="path94"
       transform="scale(0.27177398)" /><path
       style="fill:#00003f;fill-opacity:0.661626;stroke:#000000;stroke-width:0.0472088"
       d="m 50.856524,78.000397 c 3e-4,-0.639761 0.05631,-4.020698 0.124454,-7.513191 l 0.123907,-6.349989 2.064446,-7.313479 c 1.135445,-4.022413 2.075044,-7.30288 2.087998,-7.289927 0.01295,0.01295 -0.03184,3.376934 -0.09954,7.475512 -0.116299,7.040901 -0.143847,7.804597 -0.49941,13.844815 -0.206977,3.51607 -0.381891,6.396614 -0.3887,6.401209 -0.0068,0.0046 -0.777677,0.435833 -1.713041,0.958305 l -1.700664,0.94995 z"
       id="path95"
       transform="scale(0.27177398)" /><path
       style="fill:#00003f;fill-opacity:0.661626;stroke:#000000;stroke-width:0.0472088"
       d="M 51.64996,94.417544 C 51.58615,93.819166 50.855359,80.797914 50.855736,80.266095 l 2.41e-4,-0.341244 1.646021,-0.915474 c 0.905311,-0.503511 1.656244,-0.903179 1.668738,-0.888151 0.01732,0.02083 -2.288811,15.798972 -2.433805,16.651668 -0.01659,0.09756 -0.05573,-0.06234 -0.08697,-0.35535 z"
       id="path96"
       transform="scale(0.27177398)" /><path
       style="fill:#00003f;fill-opacity:0.661626;stroke:#000000;stroke-width:0.0472088"
       d="M 11.679253,78.189606 C 10.800236,77.695195 10.056284,77.280849 10.026027,77.268835 9.9957696,77.256822 9.8023278,74.388649 9.5961561,70.895118 9.2422024,64.897459 9.2143281,64.125512 9.0963076,57.052396 9.0275627,52.932431 8.9824351,49.550432 8.9960241,49.536843 c 0.013589,-0.01359 0.9560564,3.283528 2.0943719,7.326927 l 2.069665,7.351634 0.120144,6.474814 c 0.137153,7.391507 0.144214,8.401365 0.05873,8.399591 -0.03381,-7.03e-4 -0.780666,-0.405794 -1.659684,-0.900203 z"
       id="path97"
       transform="scale(0.27177398)" /><path
       style="fill:#00003f;fill-opacity:0.661626;stroke:#000000;stroke-width:0.0472088"
       d="m 11.30086,86.562762 c -0.681434,-4.627817 -1.226995,-8.428027 -1.212358,-8.44491 0.01464,-0.01688 0.756582,0.37709 1.648768,0.875496 l 1.622157,0.906193 0.02251,0.312919 c 0.02292,0.318631 -0.775616,14.698914 -0.818579,14.741306 -0.01294,0.01277 -0.58106,-3.763186 -1.262493,-8.391004 z"
       id="path98"
       transform="scale(0.27177398)" /><path
       style="fill:#161629;fill-opacity:1;stroke:#000000;stroke-width:0.0472088"
       d="m 30.243119,107.28304 c -0.450778,-0.0329 -2.681748,-0.182 -4.957712,-0.33135 l -4.138115,-0.27152 -1.312203,-0.81716 c -0.721711,-0.44944 -1.340772,-0.84162 -1.37569,-0.87152 -0.03492,-0.0299 -0.173508,-3.27877 -0.307978,-7.219715 l -0.244491,-7.165356 0.512877,-0.4678 0.512878,-0.467799 13.171963,-0.0021 13.171963,-0.0021 0.540673,0.458684 0.540671,0.458685 -0.04974,1.035713 c -0.02736,0.569643 -0.140739,3.800549 -0.251958,7.179791 -0.111219,3.379247 -0.229338,6.168807 -0.262486,6.199037 -0.03315,0.0302 -0.65038,0.42218 -1.371625,0.87101 l -1.311355,0.81606 -5.245419,0.3432 c -5.211378,0.34095 -6.050664,0.36896 -7.62225,0.25425 z"
       id="path99"
       transform="scale(0.27177398)" /><path
       style="fill:#161629;fill-opacity:1;stroke:#000000;stroke-width:0.0472088"
       d="m 50.940902,77.103563 c 0.0016,-1.04806 0.05341,-4.395088 0.115066,-7.437841 l 0.112101,-5.532278 0.299993,-1.065475 c 1.736392,-6.167089 3.674461,-12.957795 3.707524,-12.990609 0.07497,-0.07441 -0.185268,13.262235 -0.308668,15.818217 -0.261432,5.415078 -0.646804,11.259297 -0.748502,11.351136 -0.113191,0.102217 -3.071204,1.762412 -3.140136,1.762412 -0.02219,0 -0.03901,-0.857503 -0.03738,-1.905562 z"
       id="path100"
       transform="scale(0.27177398)" /><path
       style="fill:#161629;fill-opacity:1;stroke:#000000;stroke-width:0.0472088"
       d="M 51.649938,93.515987 C 51.478912,90.730093 51.017251,82.393636 50.971386,81.263016 l -0.0532,-1.311355 1.535203,-0.844671 c 0.844361,-0.46457 1.556271,-0.823603 1.582022,-0.797853 0.0495,0.0495 -0.178224,1.672897 -1.418149,10.109496 -0.99364,6.760846 -0.896598,6.249482 -0.967327,5.097354 z"
       id="path101"
       transform="scale(0.27177398)" /><path
       style="fill:#161629;fill-opacity:1;stroke:#000000;stroke-width:0.0472088"
       d="m 14.837834,57.268972 c -0.192268,-0.460164 -3.24054,-11.190418 -3.24054,-11.407062 0,-0.113293 0.07737,-0.365239 0.171935,-0.559881 l 0.171935,-0.353894 3.759802,-1.664388 3.759803,-1.664388 4.735498,-1.143747 4.735498,-1.143748 1.622818,-0.09357 c 1.224975,-0.07063 2.008599,-0.07018 3.196428,0.0018 l 1.573608,0.09541 4.736437,1.143745 4.736438,1.143744 3.760186,1.665276 3.760186,1.665275 0.170612,0.351171 c 0.09384,0.193144 0.170612,0.416044 0.170612,0.495333 0,0.331553 -3.164414,11.414616 -3.319721,11.627011 -0.08875,0.121378 -0.580045,0.10037 -5.867392,-0.250893 -3.17379,-0.210849 -5.932925,-0.409851 -6.13141,-0.442225 -0.349887,-0.05707 -0.372991,-0.07999 -0.758215,-0.752312 -0.218532,-0.381396 -0.461835,-0.730432 -0.540673,-0.775636 -0.08992,-0.05156 -1.551258,-0.0833 -3.921217,-0.08517 -3.099877,-0.0024 -3.80243,0.01737 -3.914699,0.110437 -0.07525,0.06238 -0.321036,0.418391 -0.546186,0.791138 l -0.409363,0.677722 -0.470579,0.04955 c -0.258819,0.02725 -2.406877,0.179508 -4.773463,0.338351 -2.366585,0.158842 -4.800788,0.324217 -5.409338,0.367499 -1.675962,0.119201 -1.629161,0.124165 -1.759,-0.186584 z"
       id="path102"
       transform="scale(0.27177398)" /><path
       style="fill:#161629;fill-opacity:1;stroke:#000000;stroke-width:0.0472088"
       d="M 11.679253,78.115424 10.08104,77.223701 10.024187,76.538689 C 9.9540211,75.693283 9.6708713,71.177915 9.508394,68.313388 9.4419163,67.141364 9.3500648,65.020658 9.3042795,63.600707 9.2238868,61.107465 9.0517954,51.903826 9.0611002,50.595209 l 0.00456,-0.640788 0.6871384,2.41781 c 0.3779264,1.329796 1.2819964,4.520076 2.0090454,7.089512 l 1.321906,4.671701 0.07114,3.196428 c 0.09954,4.47215 0.195706,11.67945 0.155829,11.678264 -0.01829,-5.43e-4 -0.752446,-0.402264 -1.631464,-0.892712 z"
       id="path103"
       transform="scale(0.27177398)" /><path
       style="fill:#161629;fill-opacity:1;stroke:#000000;stroke-width:0.0472088"
       d="M 11.783889,89.417059 C 10.546855,81.032999 10.171214,78.358893 10.223207,78.3069 c 0.02707,-0.02707 0.734574,0.329069 1.57223,0.791421 l 1.52301,0.840641 v 0.343856 c 0,0.453975 -0.679573,12.993684 -0.75935,14.011786 -0.0106,0.135234 -0.35944,-2.059662 -0.775208,-4.877545 z"
       id="path104"
       transform="scale(0.27177398)" /><path
       style="fill:#ff2a2a;fill-opacity:1;stroke:#000000;stroke-width:0.0472088"
       d="m 19.011842,123.26649 c -2.31319,-0.61386 -3.366157,-0.92957 -3.5692,-1.07013 -0.158406,-0.10966 -1.228338,-0.89073 -2.377627,-1.7357 l -2.089616,-1.53632 -1.2755729,-1.98795 c -0.7015648,-1.09337 -1.3034142,-2.03723 -1.337443,-2.09745 -0.076991,-0.13627 -0.5482632,-2.15868 -0.5115748,-2.19537 0.014713,-0.0147 0.4654368,0.8298 1.0016077,1.8767 l 0.9748559,1.90345 1.5862841,1.72844 1.586284,1.72844 2.146826,1.18987 2.146825,1.18987 2.703483,0.56408 c 1.486916,0.31024 2.643097,0.57571 2.569292,0.58992 -0.08467,0.0163 -0.159846,0.15446 -0.203713,0.37438 l -0.06952,0.34853 z"
       id="path105"
       transform="scale(0.27177398)" /><path
       style="fill:#1a1a1a;fill-opacity:1;stroke:#000000;stroke-width:0.0118022"
       d="m 41.92591,124.13505 c -0.0059,-0.0208 -0.04045,-0.18078 -0.07676,-0.35545 -0.03631,-0.17468 -0.07303,-0.32551 -0.08159,-0.33518 -0.0086,-0.01 -2.161404,0.11404 -4.799623,0.27587 l -4.784049,0.29344 -4.02867,-0.247 c -2.215769,-0.13586 -4.034741,-0.25308 -4.042162,-0.2605 -0.0074,-0.007 -0.0082,-0.0188 -0.0017,-0.0253 0.0065,-0.006 1.799084,0.10089 3.983581,0.23859 2.184497,0.13769 4.040967,0.24865 4.125488,0.24658 0.08452,-0.002 2.191396,-0.13173 4.681946,-0.28812 l 4.528272,-0.28435 2.773227,-0.58506 2.773228,-0.58506 2.125694,-1.18088 2.125694,-1.18089 1.586138,-1.73105 1.586137,-1.73106 1.073143,-2.09931 c 0.590231,-1.15462 1.075949,-2.0965 1.079377,-2.09307 0.0034,0.003 -0.12572,0.59162 -0.286995,1.3071 l -0.293227,1.30087 -1.332291,2.06786 -1.332291,2.06786 -2.361134,1.73519 -2.361133,1.73519 -3.277782,0.86679 c -1.80278,0.47674 -3.298924,0.87084 -3.324765,0.87578 -0.03301,0.006 -0.05018,-0.002 -0.05772,-0.0289 z"
       id="path106"
       transform="scale(0.27177398)" /><path
       style="fill:#1a1a1a;fill-opacity:1;stroke:#000000;stroke-width:0.0236044"
       d="m 28.460497,116.81064 -2.6432,-0.0515 -3.688185,-0.80511 c -2.028502,-0.44281 -3.730601,-0.81557 -3.782443,-0.82835 -0.05376,-0.0133 -0.266349,-0.22801 -0.494773,-0.4998 l -0.400515,-0.47655 -0.0532,-1.11854 c -0.02926,-0.6152 -0.04551,-1.12623 -0.03611,-1.13563 0.0094,-0.009 0.07966,0.40626 0.156128,0.92369 0.07647,0.51743 0.151004,0.96014 0.16563,0.98381 0.01463,0.0237 1.0208,0.35711 2.23594,0.74098 l 2.209347,0.69796 1.557234,0.1372 c 3.79543,0.3344 6.422843,0.55716 6.432823,0.5454 0.0144,-0.017 0.229214,-4.75709 0.21611,-4.76868 -0.0056,-0.005 -0.143897,-0.0222 -0.307304,-0.0383 l -0.297103,-0.0292 -0.0026,0.11685 c -0.01104,0.50279 -0.188715,4.0302 -0.203703,4.04417 -0.01052,0.01 -1.62348,-0.11991 -3.584365,-0.28827 l -3.565246,-0.30611 -2.048992,-0.63796 c -1.126945,-0.35087 -2.061532,-0.64898 -2.076858,-0.66246 -0.02085,-0.0183 -0.279483,-1.58594 -0.279483,-1.694 0,-0.0105 -0.142917,0.004 -0.317593,0.0314 -0.174677,0.0278 -0.31932,0.0482 -0.32143,0.0452 -0.0021,-0.003 -0.04821,-0.91357 -0.10245,-2.02362 -0.08684,-1.77736 -0.09128,-2.0182 -0.03714,-2.01776 0.03381,2.7e-4 0.734563,0.11109 1.557233,0.24627 l 1.495764,0.24578 5.839627,0.39396 c 3.211795,0.21668 5.950272,0.39177 6.085506,0.3891 0.135233,-0.003 2.790727,-0.17144 5.901096,-0.37504 l 5.655218,-0.37019 1.675814,-0.26613 c 0.921699,-0.14637 1.685555,-0.25639 1.69746,-0.24448 0.0273,0.0273 -0.164046,3.94309 -0.195001,3.99053 -0.01255,0.0192 -0.147324,0.0161 -0.299488,-0.007 -0.152165,-0.023 -0.286892,-0.0317 -0.299396,-0.0192 -0.0125,0.0125 -0.07875,0.38898 -0.14722,0.83662 -0.06847,0.44764 -0.136591,0.82563 -0.151383,0.83997 -0.01479,0.0144 -0.948942,0.31375 -2.075887,0.66534 l -2.048992,0.63926 -3.564794,0.30633 c -1.960637,0.16849 -3.57599,0.29322 -3.589673,0.2772 -0.01368,-0.016 -0.05629,-0.76678 -0.09468,-1.66833 -0.03839,-0.90156 -0.08083,-1.82691 -0.09432,-2.05635 l -0.02452,-0.41715 -0.291053,0.0233 c -0.160079,0.0128 -0.29692,0.0281 -0.304091,0.0341 -0.01734,0.0143 0.202219,4.74751 0.221165,4.76784 0.0081,0.009 1.781022,-0.13547 3.939817,-0.32038 l 3.925084,-0.33619 2.24966,-0.70281 c 1.237313,-0.38655 2.270163,-0.72332 2.295222,-0.74838 0.02506,-0.0251 0.108514,-0.47273 0.185454,-0.99483 0.07694,-0.52211 0.147646,-0.94152 0.157125,-0.93204 0.02801,0.028 -0.0818,2.16717 -0.115845,2.25669 -0.05523,0.14519 -0.777738,0.96191 -0.870635,0.98415 -0.04942,0.0118 -1.740319,0.38255 -3.757552,0.82382 l -3.667695,0.8023 -2.68418,0.0551 c -3.150416,0.0647 -3.823733,0.0643 -7.33539,-0.004 z m -0.294395,-2.17076 c 0.01608,-0.0137 -0.07477,-5.03283 -0.0914,-5.04945 -0.0066,-0.007 -0.145947,4.1e-4 -0.309621,0.0156 l -0.297589,0.0276 0.02548,1.31528 c 0.01402,0.7234 0.03681,1.86479 0.05065,2.53642 l 0.02516,1.22115 0.292181,-0.0278 c 0.160699,-0.0153 0.29801,-0.0328 0.305135,-0.0388 z m 8.547105,-1.44333 c 0.01423,-0.8283 0.0372,-1.97164 0.05106,-2.54075 l 0.02519,-1.03474 H 36.4821 36.174743 l -0.02514,0.95278 c -0.01383,0.52403 -0.0368,1.66737 -0.05105,2.54075 l -0.02591,1.58797 h 0.307352 0.307353 z m -10.802145,0.99444 c 0.01729,-0.0156 -0.113666,-4.74692 -0.131888,-4.76514 -0.0085,-0.008 -0.146298,-0.003 -0.306247,0.0132 l -0.290817,0.0286 8.19e-4,0.12789 c 4.51e-4,0.0703 0.02774,1.09604 0.06065,2.27933 0.03291,1.1833 0.0602,2.20403 0.06065,2.2683 l 8.19e-4,0.11685 0.297104,-0.0292 c 0.163407,-0.0161 0.302416,-0.034 0.308909,-0.0399 z m 13.040988,-0.13386 c 3.93e-4,-0.10706 0.02769,-1.15358 0.06066,-2.32561 0.03297,-1.17202 0.06031,-2.16176 0.06076,-2.19942 6.74e-4,-0.0568 -0.05166,-0.0708 -0.306631,-0.082 -0.186324,-0.008 -0.307727,0.003 -0.308162,0.0275 -3.95e-4,0.0225 -0.02769,0.99991 -0.06066,2.17194 -0.03297,1.17202 -0.06026,2.22641 -0.06066,2.34309 -8.17e-4,0.24242 0.0058,0.24686 0.378349,0.25437 l 0.235634,0.005 z m -15.131095,-0.0709 c 0.01722,-0.0155 -0.153909,-4.58254 -0.172404,-4.60103 -0.0087,-0.009 -0.146626,-0.003 -0.306575,0.0129 -0.260335,0.0256 -0.290744,0.0378 -0.290113,0.11556 3.88e-4,0.0478 0.03695,1.05506 0.08125,2.23835 0.0443,1.1833 0.08087,2.18559 0.08125,2.22732 6.46e-4,0.0695 0.02558,0.0734 0.297808,0.0466 0.163407,-0.0161 0.302355,-0.034 0.308774,-0.0397 z m 17.220652,-0.052 c 1.65e-4,-0.062 0.03673,-1.09806 0.08126,-2.3024 0.04453,-1.20434 0.07666,-2.19316 0.07141,-2.19737 -0.02793,-0.0224 -0.60386,-0.0444 -0.604456,-0.023 -3.87e-4,0.0139 -0.03695,0.99341 -0.08125,2.17671 -0.0443,1.18329 -0.08087,2.21009 -0.08125,2.28177 -7.95e-4,0.14692 0.03424,0.16198 0.398848,0.17144 0.208668,0.005 0.215154,0.002 0.215445,-0.10712 z M 21.567215,113.4124 c 0.01713,-0.0154 -0.113886,-4.21437 -0.132067,-4.23255 -0.0084,-0.008 -0.146134,-0.002 -0.306084,0.0134 l -0.290817,0.0286 0.001,0.12789 c 5.73e-4,0.0703 0.02782,0.97618 0.06054,2.01297 0.03272,1.03679 0.05992,1.93765 0.06043,2.00192 l 9.3e-4,0.11686 0.297104,-0.0292 c 0.163407,-0.0161 0.302424,-0.034 0.308925,-0.0399 z m 21.728197,-0.0929 c 1.18e-4,-0.0845 0.02782,-1.03725 0.06157,-2.11719 0.03375,-1.07993 0.0567,-1.96763 0.05101,-1.97267 -0.03957,-0.035 -0.604713,-0.0343 -0.605484,7.9e-4 -5.12e-4,0.0233 -0.0277,0.8906 -0.06043,1.92739 -0.03272,1.03679 -0.05997,1.97131 -0.06054,2.07672 -0.0012,0.21939 0.01024,0.22646 0.378021,0.23388 l 0.235635,0.005 z M 19.55868,112.92112 c 0.01667,-0.0149 -0.154344,-4.09195 -0.172402,-4.11001 -0.0085,-0.008 -0.146256,-0.002 -0.306206,0.0133 -0.229449,0.0226 -0.29068,0.0427 -0.290168,0.0951 3.57e-4,0.0365 0.03695,0.93314 0.08131,1.99247 0.04436,1.05933 0.08095,1.96019 0.08131,2.00192 5.95e-4,0.0695 0.02551,0.0734 0.297753,0.0466 0.163407,-0.0161 0.302188,-0.0338 0.308402,-0.0394 z m 25.744731,-0.0319 c 1.11e-4,-0.0507 0.03676,-0.97607 0.08144,-2.05635 0.04468,-1.08028 0.07686,-1.96767 0.07151,-1.97198 -0.02795,-0.0225 -0.604028,-0.0447 -0.604579,-0.0232 -3.57e-4,0.0139 -0.03695,0.89199 -0.08131,1.95132 -0.04436,1.05933 -0.08095,1.97548 -0.08131,2.0359 -7.32e-4,0.12382 0.0468,0.14181 0.398904,0.15094 0.197392,0.005 0.215161,-0.002 0.215346,-0.0866 z"
       id="path107"
       transform="scale(0.27177398)" /><path
       style="fill:#1a1a1a;fill-opacity:1;stroke:#000000;stroke-width:0.0166908"
       d="m 30.063762,125.18033 c -1.736227,-0.0884 -1.331532,-0.0452 -5.573206,-0.59454 -0.794182,-0.10286 -1.459207,-0.18721 -1.477834,-0.18746 -0.09667,-0.001 -0.114552,-0.0472 -0.07785,-0.20021 l 0.0358,-0.14923 0.163468,0.0161 c 0.08991,0.009 0.600299,0.042 1.134202,0.0736 0.937536,0.0556 2.513554,0.15155 4.998554,0.30432 0.653434,0.0402 1.572733,0.0966 2.042887,0.12539 0.470153,0.0288 0.933063,0.0474 1.028687,0.0414 0.09563,-0.006 1.353956,-0.0818 2.796293,-0.16841 1.442336,-0.0866 2.710447,-0.16555 2.818025,-0.1754 l 0.195595,-0.0179 v 0.27822 c 0,0.15303 -0.0066,0.27823 -0.01476,0.27823 -0.0081,0 -0.578604,0.071 -1.267749,0.15777 -1.084138,0.13651 -1.389664,0.16401 -2.26719,0.20408 -0.55781,0.0255 -1.255434,0.0587 -1.550276,0.0739 -0.766506,0.0395 -1.206825,0.0306 -2.984644,-0.0599 z"
       id="path108"
       transform="scale(0.27177398)" /><path
       style="fill:#1a1a1a;fill-opacity:1;stroke:#000000;stroke-width:0.0166908"
       d="m 38.177356,124.53381 v -0.27575 l 0.15213,-0.0165 c 0.08367,-0.009 0.706317,-0.0489 1.383658,-0.0885 0.67734,-0.0396 1.310702,-0.0796 1.407471,-0.0888 l 0.175944,-0.0167 0.03093,0.16837 c 0.01701,0.0926 0.02772,0.17193 0.02381,0.17629 -0.0039,0.004 -0.670757,0.092 -1.481867,0.19487 -0.81111,0.10282 -1.523644,0.19494 -1.58341,0.20471 l -0.108664,0.0178 z"
       id="path109"
       transform="scale(0.27177398)" /><path
       style="fill:#90f7ff;fill-opacity:1;stroke:#000000;stroke-width:0.0333816"
       d="m 41.869823,123.80663 c -0.07985,-0.31551 -0.09669,-0.33722 -0.287655,-0.37096 -0.111562,-0.0197 -0.163721,-0.0414 -0.115909,-0.0483 0.300588,-0.0431 0.717433,-0.12441 0.956245,-0.18658 0.1275,-0.0332 0.316076,-0.0708 0.419058,-0.0836 0.102983,-0.0128 0.350737,-0.0632 0.550565,-0.11204 0.199829,-0.0488 0.447583,-0.10099 0.550566,-0.1159 0.102982,-0.0149 0.350736,-0.0673 0.550565,-0.11649 0.199828,-0.0491 0.441563,-0.10218 0.537187,-0.11784 0.09562,-0.0156 0.343379,-0.0695 0.550565,-0.11957 0.207187,-0.0501 0.428862,-0.0992 0.492612,-0.10899 0.06375,-0.01 0.181107,-0.0326 0.260794,-0.0506 0.07969,-0.018 0.281785,-0.061 0.449106,-0.0956 0.167322,-0.0346 0.336838,-0.0947 0.376703,-0.13367 0.03987,-0.0389 0.159461,-0.10637 0.265769,-0.14986 0.106307,-0.0435 0.223665,-0.10758 0.260794,-0.14244 0.03713,-0.0349 0.158784,-0.10958 0.270346,-0.16607 0.111562,-0.0565 0.333237,-0.17768 0.492611,-0.26933 0.159375,-0.0916 0.394089,-0.22157 0.521589,-0.28871 0.127499,-0.0671 0.362214,-0.19755 0.521588,-0.28978 0.159374,-0.0922 0.394089,-0.22262 0.521588,-0.28977 0.127499,-0.0671 0.362214,-0.19821 0.521588,-0.29125 0.159374,-0.093 0.386223,-0.21259 0.504107,-0.26566 0.117886,-0.0531 0.277884,-0.17896 0.355551,-0.27975 0.07767,-0.10079 0.255051,-0.30218 0.394183,-0.44754 0.234272,-0.24475 0.455372,-0.48406 1.232427,-1.33395 0.606092,-0.66289 0.98404,-1.07427 1.193883,-1.29948 0.118801,-0.1275 0.327397,-0.46653 0.463548,-0.75341 0.231579,-0.48794 1.012114,-1.97723 1.518687,-2.89771 0.21809,-0.39628 0.222582,-0.40031 0.193945,-0.17386 -0.01612,0.1275 -0.06667,0.38177 -0.112327,0.56505 -0.04566,0.18328 -0.07141,0.33324 -0.05722,0.33324 0.01418,0 -6.09e-4,0.0493 -0.03287,0.10961 -0.03226,0.0603 -0.07151,0.1972 -0.08723,0.30426 -0.01571,0.10706 -0.05415,0.29897 -0.08543,0.42647 -0.03127,0.1275 -0.05573,0.23181 -0.05434,0.23181 0.0014,0 -0.03015,0.0717 -0.07009,0.15938 -0.03994,0.0877 -0.09451,0.15937 -0.121268,0.15937 -0.02676,0 -0.04865,0.0263 -0.04865,0.0585 0,0.0322 -0.09128,0.18841 -0.20284,0.34713 -0.111562,0.15872 -0.20284,0.30295 -0.20284,0.3205 0,0.0363 -0.226743,0.36385 -0.327809,0.47352 -0.03686,0.04 -0.101903,0.15154 -0.144544,0.24787 -0.04264,0.0963 -0.09724,0.17515 -0.121337,0.17515 -0.02409,0 -0.04381,0.0248 -0.04381,0.0552 0,0.0303 -0.110837,0.21942 -0.246305,0.42017 -0.135468,0.20074 -0.272385,0.40711 -0.30426,0.45859 -0.03187,0.0515 -0.155752,0.24106 -0.275283,0.42129 -0.11953,0.18023 -0.217328,0.35327 -0.217328,0.38452 0,0.0313 -0.02608,0.0568 -0.05795,0.0568 -0.03187,0 -0.05808,0.0326 -0.05822,0.0725 -5.3e-4,0.14309 -0.291011,0.40806 -1.042908,0.9513 -0.207186,0.14969 -0.408396,0.30006 -0.447134,0.33415 -0.172473,0.15178 -0.245563,0.20687 -0.274486,0.20687 -0.05213,0 -1.2185,0.87907 -1.239165,0.93393 -0.01062,0.0282 -0.04974,0.0517 -0.08693,0.0522 -0.03719,5.1e-4 -0.158892,0.0785 -0.270454,0.17325 -0.111561,0.0948 -0.234338,0.19867 -0.272836,0.23089 -0.0385,0.0322 -0.0869,0.0586 -0.107569,0.0586 -0.03328,0 -0.472113,0.32476 -0.546862,0.4047 -0.01594,0.017 -0.126597,0.096 -0.24591,0.17536 -0.119313,0.0794 -0.217111,0.16393 -0.217328,0.18784 -2.18e-4,0.0239 -0.02478,0.0435 -0.05458,0.0435 -0.0298,0 -0.114558,0.023 -0.188351,0.051 -0.07379,0.0281 -0.153385,0.0553 -0.176871,0.0605 -0.02348,0.005 -0.166922,0.0486 -0.318748,0.0964 -0.151826,0.0478 -0.315167,0.0962 -0.362979,0.10751 -0.04781,0.0113 -0.243408,0.0634 -0.434657,0.11567 -0.573557,0.15677 -0.727653,0.19566 -0.956245,0.24132 -0.07969,0.0159 -0.275282,0.0685 -0.434656,0.11683 -0.159375,0.0483 -0.35497,0.10007 -0.434657,0.11495 -0.07969,0.0149 -0.288323,0.0696 -0.463634,0.12165 -0.428536,0.12717 -0.411319,0.12261 -0.60852,0.16129 -0.09562,0.0188 -0.26514,0.0644 -0.376702,0.10131 -0.111562,0.037 -0.22892,0.0736 -0.260794,0.0815 -0.03188,0.008 -0.123153,0.031 -0.20284,0.0515 -0.07969,0.0204 -0.257466,0.0606 -0.395064,0.0893 -0.137598,0.0286 -0.274417,0.0671 -0.304042,0.0854 -0.05084,0.0314 -0.09983,0.0447 -0.416513,0.11267 -0.07172,0.0154 -0.196548,0.0423 -0.277399,0.0598 -0.137518,0.0298 -0.152474,0.0102 -0.231817,-0.30329 z"
       id="path110"
       transform="scale(0.27177398)" /><path
       style="fill:#90f7ff;fill-opacity:1;stroke:#000000;stroke-width:0.0333816"
       d="M 7.6025945,16.472726 C 7.58924,16.449242 7.5479689,16.29963 7.5108809,16.140256 7.4444347,15.854725 7.4485562,15.837829 7.7925635,14.985555 7.984577,14.509843 8.1353598,14.114873 8.1276363,14.107843 8.1199129,14.100814 8.0138714,14.053729 7.8919885,14.00321 7.701997,13.924462 7.6761273,13.892589 7.7106475,13.779791 7.7743288,13.571706 7.781372,13.563045 8.6349212,12.643216 L 9.4460197,11.769134 9.9968458,11.557789 C 10.2998,11.441549 10.751655,11.271005 11.000968,11.178802 l 0.453297,-0.167642 -0.01864,0.300668 c -0.01732,0.279463 -0.0084,0.303159 0.126246,0.335991 0.171975,0.04193 0.182771,-0.157952 -0.111955,2.072771 -0.118964,0.900422 -0.234972,1.655803 -0.257794,1.678626 -0.05183,0.05183 -1.9421733,0.158086 -1.9884889,0.11177 -0.018619,-0.01862 -0.089816,-0.536635 -0.1582158,-1.151147 l -0.1243635,-1.117295 -0.2835839,0.01508 c -0.1559712,0.0083 -0.2965384,0.02804 -0.3123716,0.04387 -0.015833,0.01583 0.028552,0.556714 0.098634,1.201958 0.070082,0.645244 0.1267683,1.19039 0.1259699,1.211436 -0.00254,0.06689 -0.9217574,0.802418 -0.9471076,0.757839 z"
       id="path111"
       transform="scale(0.27177398)" /><path
       style="fill:#90f7ff;fill-opacity:1;stroke:#000000;stroke-width:0.0333816"
       d="m 11.627504,16.256165 -0.119678,-0.20284 h 0.142931 c 0.07861,0 0.142924,-0.01956 0.142916,-0.04347 -1.6e-5,-0.04659 0.514558,-3.991519 0.537108,-4.117681 0.0074,-0.04145 0.214336,0.171001 0.459835,0.472124 l 0.446364,0.547497 -0.105376,0.926259 c -0.05796,0.509443 -0.126993,0.962012 -0.153415,1.005709 -0.07457,0.123323 -1.196678,1.615237 -1.214864,1.615237 -0.0089,0 -0.07,-0.09128 -0.135821,-0.202839 z"
       id="path112"
       transform="scale(0.27177398)" /><path
       style="fill:#90f7ff;fill-opacity:1;stroke:#000000;stroke-width:0.0333816"
       d="M 8.5192734,17.787242 C 8.0209066,17.522354 8.0354419,17.542126 8.0997985,17.21664 c 0.050643,-0.256126 0.098742,-0.32673 0.3835748,-0.563037 0.1791192,-0.148604 0.366725,-0.315606 0.4169017,-0.371116 0.077178,-0.08538 0.2467914,-0.10692 1.101131,-0.139832 0.649694,-0.02503 0.98123,-0.01909 0.929518,0.01665 -0.06532,0.04515 -0.03957,0.122735 0.137388,0.414044 0.119773,0.197169 0.195064,0.379075 0.167313,0.404238 -0.02775,0.02516 -0.326956,0.229725 -0.6649,0.454583 l -0.6144441,0.408835 -0.6025953,0.03472 c -0.5423711,0.03125 -0.6257633,0.02241 -0.8344122,-0.08849 z"
       id="path113"
       transform="scale(0.27177398)" /><path
       style="fill:#90f7ff;fill-opacity:1;stroke:#000000;stroke-width:0.0333816"
       d="M 8.8090446,19.470166 C 8.4265466,19.412248 8.0043489,19.34863 7.8708276,19.328791 7.6447696,19.295204 7.6022868,19.256935 7.2535611,18.772757 6.8291474,18.183493 6.8394752,18.229767 6.7824301,16.661844 l -0.029519,-0.811359 0.2768542,1.004015 0.2768541,1.004015 0.6353043,0.345543 0.6353044,0.345542 0.7823822,-0.03551 0.7823817,-0.03551 0.97464,-0.64419 c 0.536051,-0.354305 1.003319,-0.69787 1.038371,-0.763479 0.03505,-0.06561 0.367354,-0.523519 0.738448,-1.017579 0.371094,-0.49406 0.689965,-0.92437 0.708603,-0.956245 0.01864,-0.03187 0.09244,-0.587032 0.164015,-1.233682 l 0.130129,-1.175727 -0.133875,-0.142503 c -0.07363,-0.07838 -0.121004,-0.155374 -0.105273,-0.171105 0.01573,-0.01573 0.102536,0.04857 0.192902,0.142893 l 0.164301,0.171494 -0.0754,1.228848 -0.0754,1.228848 -0.907551,1.481695 -0.907551,1.481695 -1.184997,0.737401 C 10.211606,19.252515 9.6392385,19.58235 9.5914263,19.579912 9.5436143,19.577512 9.191542,19.528092 8.809044,19.470173 Z"
       id="path114"
       transform="scale(0.27177398)" /><path
       style="fill:#90f7ff;fill-opacity:1;stroke:#000000;stroke-width:0.0333816"
       d="m 56.154954,16.130063 -0.46618,-0.377396 0.13001,-1.139153 c 0.07151,-0.626534 0.131366,-1.181432 0.133023,-1.233107 0.0022,-0.0699 -0.07292,-0.104026 -0.293524,-0.13329 -0.163095,-0.02164 -0.30364,-0.03151 -0.312323,-0.02196 -0.0087,0.0096 -0.07271,0.525629 -0.142279,1.146819 -0.06957,0.621191 -0.135217,1.138161 -0.145879,1.148824 -0.03303,0.03303 -1.929928,-0.06111 -1.98673,-0.09859 -0.04711,-0.03109 -0.479877,-3.12322 -0.499178,-3.566651 -0.0059,-0.135774 0.02173,-0.177365 0.137488,-0.206854 0.148452,-0.03782 0.159054,-0.08593 0.09257,-0.420074 -0.0207,-0.104026 -0.0071,-0.159896 0.03928,-0.160877 0.03905,-8.27e-4 0.483861,0.14913 0.988477,0.333237 l 0.917483,0.33474 0.827238,0.869313 c 0.454981,0.478123 0.873198,0.958702 0.929372,1.067953 0.09831,0.191203 0.09808,0.201602 -0.0061,0.2778 -0.05953,0.04354 -0.166907,0.09389 -0.238626,0.111903 -0.07172,0.01801 -0.130397,0.05224 -0.130397,0.07607 0,0.02383 0.154785,0.422699 0.343966,0.886375 l 0.343966,0.843047 -0.07951,0.301399 c -0.04373,0.16577 -0.08771,0.309604 -0.09774,0.319632 -0.01003,0.01003 -0.228013,-0.151596 -0.484412,-0.359164 z"
       id="path115"
       transform="scale(0.27177398)" /><path
       style="fill:#90f7ff;fill-opacity:1;stroke:#000000;stroke-width:0.0333816"
       d="m 52.380488,16.328814 c -0.06472,-0.07183 -0.351511,-0.443557 -0.637315,-0.826055 l -0.519644,-0.69545 -0.102042,-0.943925 -0.102042,-0.943924 0.42078,-0.520543 c 0.231428,-0.286299 0.438048,-0.500479 0.459155,-0.475955 0.02111,0.02452 0.149153,0.905209 0.284547,1.957079 0.289805,2.251473 0.274844,2.173284 0.415829,2.173284 0.136307,0 0.13696,0.04432 0.0036,0.246512 l -0.10523,0.159581 z"
       id="path116"
       transform="scale(0.27177398)" /><path
       style="fill:#90f7ff;fill-opacity:1;stroke:#000000;stroke-width:0.0333816"
       d="m 54.505964,17.854361 c -0.19086,-0.02782 -0.434474,-0.154541 -0.908466,-0.472562 l -0.647672,-0.43455 0.223858,-0.352086 c 0.174165,-0.273929 0.208586,-0.368002 0.15506,-0.423788 -0.05461,-0.05692 0.137517,-0.06316 0.931794,-0.03025 l 1.000591,0.04146 0.187471,0.183412 c 0.103109,0.100876 0.287286,0.264153 0.409281,0.362837 0.152151,0.123077 0.238169,0.249935 0.2739,0.403944 0.08669,0.373648 0.07329,0.401381 -0.286494,0.593146 -0.358729,0.191201 -0.690463,0.223013 -1.339323,0.128438 z"
       id="path117"
       transform="scale(0.27177398)" /><path
       style="fill:#ff0000;fill-opacity:1;stroke:#000000;stroke-width:0.0333816"
       d="m 53.393698,18.852036 -1.193454,-0.736497 -0.901921,-1.48095 -0.901921,-1.480949 -0.08091,-1.216342 -0.08091,-1.216342 0.260427,-0.305672 c 0.311496,-0.365615 0.4055,-0.361869 0.10553,0.0042 -0.248919,0.303772 -0.247805,0.283963 -0.09241,1.643216 l 0.116915,1.02265 0.752399,0.993937 c 0.413819,0.546665 0.753084,1.018732 0.753922,1.049038 8.37e-4,0.03031 0.440642,0.346209 0.977344,0.702006 l 0.975821,0.646903 0.782343,0.04146 0.782343,0.04146 0.630925,-0.335508 c 0.347009,-0.18453 0.639254,-0.341798 0.649433,-0.349487 0.01018,-0.0077 0.134651,-0.453346 0.276605,-0.990351 0.141954,-0.537006 0.270539,-1.002453 0.285746,-1.034328 0.01521,-0.03188 0.01537,0.150681 3.55e-4,0.40568 -0.01501,0.254998 -0.04435,0.807653 -0.0652,1.228121 l -0.0379,0.764487 -0.365482,0.501704 c -0.201015,0.275938 -0.374891,0.511115 -0.38639,0.522614 -0.01911,0.01911 -1.903394,0.315442 -2.005808,0.315442 -0.02439,0 -0.5814,-0.331423 -1.2378,-0.736497 z"
       id="path118"
       transform="scale(0.27177398)" /><path
       style="fill:#90f7ff;fill-opacity:1;stroke:#000000;stroke-width:0.0333816"
       d="m 41.90479,123.76603 c -0.0502,-0.1727 -0.121855,-0.32419 -0.159224,-0.33664 -0.03737,-0.0125 0.230053,-0.0838 0.594269,-0.15847 4.266583,-0.87507 4.784211,-1.01043 5.472414,-1.43114 0.127499,-0.0779 0.967537,-0.55114 1.866749,-1.05157 l 1.634933,-0.90986 1.534743,-1.6758 1.534742,-1.6758 0.846781,-1.61684 c 1.1516,-2.19887 1.159253,-2.2102 0.98879,-1.46448 -0.04372,0.19125 -0.135095,0.59258 -0.20306,0.89185 -0.06797,0.29926 -0.177056,0.61222 -0.242423,0.69545 -0.112284,0.14296 -0.629746,0.93727 -1.209586,1.85671 -0.143437,0.22745 -0.44987,0.70163 -0.680963,1.05373 -0.231092,0.35211 -0.420168,0.66224 -0.420168,0.68918 0,0.0888 -1.049455,0.92348 -2.003719,1.59372 -0.226909,0.15938 -0.553483,0.40137 -0.72572,0.53776 -0.172237,0.13639 -0.469635,0.35949 -0.660884,0.49578 -0.191249,0.13629 -0.586318,0.42307 -0.87793,0.63728 -0.573456,0.42124 -0.838711,0.53141 -2.019782,0.83889 -0.382498,0.0996 -1.347436,0.35432 -2.144307,0.56608 -0.796871,0.21176 -1.644451,0.43528 -1.883513,0.49671 -0.239061,0.0614 -0.578093,0.14896 -0.753405,0.19451 -0.175311,0.0455 -0.336457,0.0837 -0.358101,0.0849 -0.02164,0.001 -0.08043,-0.13924 -0.130636,-0.31194 z"
       id="path119"
       transform="scale(0.27177398)" /><path
       style="fill:#90f7ff;fill-opacity:1;stroke:#000000;stroke-width:0.0333816"
       d="M 53.638383,18.945033 C 53.113402,18.624378 52.578774,18.291657 52.450322,18.205655 52.261413,18.079176 52.049018,17.773593 51.33915,16.60696 50.36205,15.001143 50.415223,15.151788 50.3664,13.851064 l -0.02937,-0.782383 0.119267,1.0142 0.119267,1.014199 0.797381,1.072153 0.797381,1.072154 0.947915,0.643628 0.947916,0.643629 0.80207,0.03829 0.802069,0.03829 0.653782,-0.348139 0.653783,-0.348139 0.220929,-0.826389 c 0.121512,-0.454514 0.232374,-0.83927 0.24636,-0.855013 0.01399,-0.01574 0.01084,0.127693 -0.007,0.318748 -0.01783,0.191055 -0.04842,0.652558 -0.06798,1.025561 l -0.03555,0.678187 -0.317515,0.422943 c -0.174633,0.232619 -0.33574,0.454772 -0.358016,0.493674 -0.03553,0.06206 -1.680028,0.366075 -1.961684,0.362659 -0.05749,-6.97e-4 -0.534054,-0.263623 -1.059036,-0.584279 z"
       id="path120"
       transform="scale(0.27177398)" /><path
       style="fill:#ff0000;fill-opacity:1;stroke:#000000;stroke-width:0.0333816"
       d="m 42.006996,123.92208 c -0.01994,-0.0566 -0.06996,-0.18702 -0.111139,-0.2899 -0.09051,-0.22612 -0.297143,-0.16057 2.062435,-0.6543 1.86296,-0.38981 2.836044,-0.62639 3.253965,-0.79112 0.148128,-0.0584 1.134195,-0.58862 2.19126,-1.17831 l 1.921939,-1.07215 1.548811,-1.68671 1.548812,-1.68672 0.54193,-1.03713 c 0.929727,-1.7793 1.176262,-2.23193 1.201767,-2.20642 0.04511,0.0451 -0.270807,1.33973 -0.377259,1.54599 -0.217682,0.42176 -2.380278,3.74518 -2.538232,3.90068 -0.203966,0.2008 -1.075737,0.87191 -2.618694,2.01593 -1.827486,1.35498 -2.016389,1.47368 -2.660529,1.67187 -0.456358,0.14041 -5.158091,1.39036 -5.768159,1.53345 -0.123261,0.0289 -0.169085,0.0138 -0.196907,-0.0652 z"
       id="path121"
       transform="scale(0.27177398)" /></g></svg>
